<svg height="800" width="800" xmlns="http://www.w3.org/2000/svg" viewBox="0 0 512.006 512.006"><path d="M235.111 297.774l-71.27 71.279c-3.337 3.328-3.337 8.73 0 12.066a8.51 8.51 0 006.033 2.5 8.509 8.509 0 006.033-2.5l71.27-71.279a8.523 8.523 0 000-12.066 8.525 8.525 0 00-12.066 0z"/><path d="M511.683 74.566c-1.468-13.235-7.927-26.163-18.185-36.429-10.257-10.257-23.194-16.717-36.429-18.176-13.952-1.553-26.581 2.534-35.558 11.52-9.481 9.481-13.406 23.023-11.093 37.734L301.686 177.948c-.009 0-.009.009-.009.009L2.491 477.809A8.531 8.531 0 00.81 487.46a8.528 8.528 0 008.491 4.873c95.966-8.721 186.539-51.26 255.053-119.774l115.968-115.977a8.497 8.497 0 002.5-6.033 8.51 8.51 0 00-2.5-6.033l-20.591-20.591 102.69-102.699c14.754 2.295 28.254-1.621 37.734-11.102 8.985-8.985 13.081-21.606 11.528-35.558zM362.222 250.549L252.278 360.493C192.4 420.38 114.943 459.565 32.033 472.356l275.695-276.301 12.962 12.971 20.941 20.932 20.591 20.591zm-7.023-64.691c-4.71 0-8.533-3.823-8.533-8.533s3.823-8.533 8.533-8.533 8.533 3.823 8.533 8.533-3.823 8.533-8.533 8.533zm79.266-75.733c-3.337 3.337-8.738 3.337-12.066 0a8.523 8.523 0 010-12.066c3.328-3.337 8.73-3.337 12.066 0 3.337 3.327 3.337 8.738 0 12.066z"/></svg>