<svg height="800" width="800" xmlns="http://www.w3.org/2000/svg" viewBox="0 0 511.908 511.908"><path d="M481.182 51.143l-23.091-23.091a8.54 8.54 0 00-12.066 0l-192.47 192.469L2.411 471.785a8.708 8.708 0 00-1.596 2.244c-.077.154-.094.333-.162.503a8.276 8.276 0 00-.631 2.355c-.034.316-.017.631-.017.956 0 .734.102 1.442.299 2.167.051.205.009.41.077.606.051.145.154.256.213.393.051.137.06.29.119.427.154.324.393.589.58.887.196.299.358.614.589.887.324.401.708.725 1.101 1.058.247.205.461.444.734.623.469.316.998.538 1.527.751.239.102.452.247.708.324a8.375 8.375 0 003.269.35c112.717-10.248 213.683-57.045 291.968-135.33l41.421-41.412c3.328-3.337 3.328-8.738 0-12.066l-17.314-17.314c15.753-6.562 30.31-14.669 43.315-24.294l.41-.333c2.475-2.082 60.971-51.567 93.85-106.812.188-.324.427-.828.572-1.169.597-1.399 6.579-13.662 29.884-9.011 2.551.546 5.231-.171 7.236-1.894 1.092-.939 10.692-9.66 11.315-26.3.681-18.252-9.644-38.177-30.696-59.238zM259.588 238.621l34.244 34.244C269 298.277 165.004 400.123 43.856 454.463l215.732-215.842zm29.534 100.301c-59.307 59.307-132.181 99.78-213.453 119.211 112.572-57.19 206.046-148.497 230.229-173.201l18.611 18.611-35.387 35.379zm47.829-117.103c-7.057 0-12.774-5.717-12.774-12.774s5.717-12.774 12.774-12.774 12.774 5.717 12.774 12.774-5.716 12.774-12.774 12.774zm85.334-85.376c-7.057 0-12.774-5.717-12.774-12.774s5.717-12.783 12.774-12.783c7.057 0 12.774 5.726 12.774 12.783s-5.717 12.774-12.774 12.774z"/></svg>