<svg height="800" width="800" xmlns="http://www.w3.org/2000/svg" viewBox="0 0 511.993 511.993"><path d="M331.688 277.386a8.545 8.545 0 00-7.424-4.326H187.73a8.545 8.545 0 00-7.424 4.326 8.545 8.545 0 00.102 8.602 171.059 171.059 0 0124.388 88.03v35.575h34.133c4.719 0 8.533 3.814 8.533 8.533s-3.814 8.533-8.533 8.533h-34.133v17.067h34.133c4.719 0 8.533 3.814 8.533 8.533s-3.814 8.533-8.533 8.533h-34.133c0 28.237 22.963 51.2 51.2 51.2 28.228 0 51.2-22.963 51.2-51.2v-86.775c0-31.01 8.431-61.449 24.38-88.03a8.52 8.52 0 00.112-8.601zm-118.359-21.391h85.333a8.525 8.525 0 008.533-8.533v-88.218c0-64.367-34.287-124.919-89.472-158.029a8.565 8.565 0 00-8.602-.111 8.526 8.526 0 00-4.326 7.424v238.933a8.527 8.527 0 008.534 8.534zm30.08-169.643c4.139-2.261 9.327-.683 11.563 3.456 11.665 21.623 18.091 47.3 18.091 72.32v51.2c0 4.719-3.814 8.533-8.533 8.533s-8.533-3.814-8.533-8.533v-51.2c0-22.238-5.7-45.039-16.043-64.213-2.245-4.148-.692-9.327 3.455-11.563z"/></svg>