<svg height="800" width="800" xmlns="http://www.w3.org/2000/svg" viewBox="0 0 506.275 506.275"><circle cx="352.242" cy="120.341" r="9.532"/><circle cx="406.157" cy="66.427" r="9.532"/><path d="M459.366 13.219C450.594 4.447 438.946-.332 426.538.018c-12.399.256-23.851 5.427-32.256 14.558l-129.05 140.271L36.198 383.881a8.56 8.56 0 00-2.5 6.033c0 2.27.905 4.437 2.5 6.033l74.837 74.837 241.203-241.203-28.1-28.109 133.871-123.17c9.131-8.405 14.302-19.849 14.558-32.256.256-12.398-4.429-24.055-13.201-32.827zM96.145 399.446c-5.257 0-9.523-4.267-9.523-9.532s4.267-9.532 9.523-9.532c5.265 0 9.532 4.267 9.532 9.532s-4.267 9.532-9.532 9.532zm350.31-333.704l-134.4 123.648-28.86-28.86L406.843 26.121c5.222-5.666 12.339-8.883 20.053-9.037 7.748-.316 14.95 2.748 20.403 8.201 5.444 5.444 8.363 12.698 8.201 20.403-.153 7.715-3.37 14.84-9.045 20.054zm-82.147 175.906L123.105 482.851l20.924 20.924a8.526 8.526 0 006.033 2.5 8.509 8.509 0 006.033-2.5l229.137-229.137a8.497 8.497 0 002.5-6.033 8.526 8.526 0 00-2.5-6.033l-20.924-20.924z"/></svg>