<svg xmlns="http://www.w3.org/2000/svg" width="16" height="16" viewBox="0 0 410.587 410.588"><path d="M410.587 371.351l-50.044-50.044-39.866-39.866c20.505-28.842 32.685-63.996 32.685-102.009 0-97.424-79.263-176.687-176.684-176.687C79.251 2.745 0 82.008 0 179.432c0 97.423 79.251 176.675 176.678 176.675 40.698 0 78.116-13.963 108.01-37.167l68.508 68.508c.841.841 1.784 1.509 2.705 2.207l18.194 18.188 36.492-36.492zm-233.898-56.803c-74.503-.006-135.111-60.622-135.111-135.111 0-74.5 60.614-135.108 135.111-135.108 74.498 0 135.108 60.608 135.108 135.108 0 30.998-10.59 59.507-28.218 82.333-5.833 7.537-12.374 14.49-19.642 20.654-23.563 19.985-53.997 32.124-87.248 32.124z" fill="#030303"/></svg>