<?xml version="1.0" standalone="no"?>
<!DOCTYPE svg PUBLIC "-//W3C//DTD SVG 20010904//EN"
 "http://www.w3.org/TR/2001/REC-SVG-20010904/DTD/svg10.dtd">
<svg version="1.0" xmlns="http://www.w3.org/2000/svg"
 width="700.000000pt" height="700.000000pt" viewBox="0 0 700.000000 700.000000"
 preserveAspectRatio="xMidYMid meet">
<metadata>
Created by potrace 1.14, written by Peter Selinger 2001-2017
</metadata>
<g transform="translate(0.000000,700.000000) scale(0.100000,-0.100000)"
fill="#000000" stroke="none">
<path d="M3417 6594 c-3 -3 -50 -8 -104 -10 -54 -2 -111 -6 -128 -9 -52 -7
-119 -16 -165 -21 -25 -2 -61 -8 -80 -13 -19 -5 -44 -9 -55 -10 -29 -1 -49 -6
-61 -14 -11 -6 -55 -15 -115 -22 -14 -1 -41 -11 -60 -21 -19 -10 -38 -17 -43
-16 -5 2 -26 -4 -47 -12 -22 -9 -39 -13 -39 -9 0 3 -9 -2 -19 -11 -11 -10 -24
-15 -30 -12 -5 3 -11 2 -13 -4 -1 -5 -12 -11 -23 -13 -22 -4 -43 -12 -95 -33
-20 -9 -42 -17 -50 -19 -40 -9 -60 -18 -60 -28 0 -6 -3 -7 -6 -4 -4 4 -35 -10
-70 -29 -35 -20 -68 -33 -74 -29 -5 3 -10 2 -10 -3 0 -9 -76 -62 -90 -62 -5 0
-31 -15 -59 -32 -28 -18 -73 -46 -101 -63 -28 -16 -75 -48 -105 -70 -29 -22
-82 -60 -116 -85 -35 -25 -93 -73 -129 -107 -36 -34 -69 -62 -73 -62 -4 0 -20
-15 -35 -33 -15 -18 -48 -54 -74 -80 -27 -26 -48 -52 -48 -58 0 -6 -5 -8 -10
-5 -5 3 -10 2 -10 -3 0 -4 -13 -24 -30 -42 -16 -18 -30 -38 -30 -43 0 -5 -8
-6 -17 -3 -10 4 -14 4 -10 0 6 -6 -49 -85 -65 -92 -5 -2 -5 -9 -2 -14 4 -6 2
-8 -3 -5 -11 7 -40 -21 -35 -32 3 -7 -69 -104 -80 -109 -5 -2 -8 -9 -8 -17 0
-7 -7 -18 -15 -25 -9 -7 -13 -15 -11 -18 3 -2 -10 -23 -28 -46 -34 -41 -67
-98 -136 -233 -20 -40 -43 -79 -50 -88 -7 -8 -9 -15 -6 -15 4 0 0 -7 -8 -16
-9 -8 -14 -20 -10 -25 3 -6 -2 -21 -11 -36 -12 -17 -13 -23 -4 -18 9 5 7 1 -3
-11 -16 -19 -52 -94 -50 -105 1 -4 -8 -31 -19 -60 -11 -30 -21 -58 -22 -64 -2
-5 -5 -14 -8 -20 -4 -5 -10 -23 -14 -40 -11 -40 -12 -44 -15 -52 -1 -5 -2 -12
-1 -17 1 -4 -4 -18 -12 -30 -8 -11 -13 -31 -11 -43 2 -13 -1 -23 -7 -23 -5 0
-8 -4 -5 -9 4 -5 1 -22 -6 -38 -6 -15 -10 -32 -9 -37 1 -4 -4 -24 -10 -44 -7
-20 -13 -58 -15 -85 -2 -27 -7 -54 -13 -60 -5 -7 -7 -25 -6 -41 2 -17 -1 -39
-7 -49 -7 -15 -7 -18 2 -12 9 6 9 3 1 -13 -15 -27 -14 -55 1 -46 7 5 8 3 2 -7
-12 -20 -15 -37 -18 -94 -1 -27 -5 -56 -9 -62 -5 -7 -5 -18 -1 -24 4 -6 6 -34
5 -63 -2 -68 -1 -179 2 -241 2 -27 -2 -56 -8 -64 -8 -12 -7 -13 4 -6 11 6 13
4 8 -8 -3 -10 -3 -17 1 -17 4 0 8 -29 7 -64 0 -35 4 -62 9 -59 4 3 5 -4 1 -16
-4 -13 -2 -21 5 -21 6 0 9 -4 6 -9 -3 -4 1 -46 10 -92 9 -46 17 -97 18 -114 1
-16 8 -40 14 -52 8 -15 9 -24 1 -28 -7 -5 -5 -13 6 -25 9 -10 14 -24 10 -29
-3 -6 -2 -11 2 -11 5 0 10 -8 11 -17 2 -19 9 -54 12 -63 1 -3 2 -9 1 -14 -1
-4 4 -14 10 -22 6 -8 8 -14 4 -14 -4 0 -2 -7 5 -15 7 -8 9 -15 5 -15 -4 0 -3
-6 3 -13 6 -7 13 -25 16 -40 3 -15 12 -42 20 -59 9 -17 16 -37 16 -45 0 -7 4
-13 9 -13 5 0 8 -11 7 -25 -2 -13 0 -22 4 -20 5 3 13 -9 19 -25 5 -17 8 -30 5
-30 -3 0 2 -7 10 -16 9 -8 14 -20 11 -25 -4 -5 -1 -9 5 -9 6 0 8 -5 5 -10 -3
-6 -2 -10 3 -10 6 0 13 -12 16 -26 4 -15 14 -33 22 -42 9 -8 13 -23 11 -34 -3
-11 2 -22 15 -29 11 -6 17 -13 14 -17 -4 -3 4 -17 16 -30 13 -14 17 -22 9 -17
-14 8 9 -34 37 -67 8 -10 11 -18 7 -18 -5 0 0 -7 11 -15 10 -8 16 -15 11 -15
-4 0 6 -19 23 -42 16 -22 30 -45 30 -49 0 -11 70 -103 81 -107 5 -2 7 -7 4
-12 -3 -4 13 -26 34 -49 21 -22 36 -43 33 -46 -3 -3 0 -5 6 -5 5 0 21 -17 33
-37 13 -21 31 -44 41 -51 10 -7 16 -18 13 -23 -4 -5 2 -9 11 -9 10 0 15 -2 12
-5 -3 -3 48 -58 112 -123 147 -146 186 -182 200 -182 6 0 9 -4 6 -9 -3 -4 6
-13 20 -20 14 -6 22 -15 19 -21 -3 -5 6 -12 20 -16 14 -3 25 -9 25 -13 0 -3
27 -27 60 -51 33 -25 60 -48 60 -52 0 -5 8 -8 18 -8 9 0 33 -15 52 -33 19 -17
34 -31 35 -30 1 11 45 -13 45 -24 0 -9 6 -13 15 -9 8 3 15 1 15 -4 0 -6 7 -10
15 -10 9 0 18 -7 21 -15 4 -8 15 -15 25 -15 11 0 22 -7 25 -15 4 -8 12 -15 20
-15 8 0 14 -5 14 -11 0 -5 5 -7 11 -3 6 3 24 -3 40 -15 15 -11 35 -21 43 -21
8 0 16 -3 18 -7 4 -11 90 -53 106 -53 6 0 12 -4 12 -9 0 -5 14 -12 30 -16 17
-4 30 -11 30 -16 0 -6 6 -9 13 -8 27 3 46 -2 61 -16 8 -8 28 -17 43 -19 16 -1
44 -10 63 -18 30 -14 63 -27 80 -33 3 -1 12 -4 20 -8 24 -9 74 -20 83 -19 4 1
7 -1 7 -6 0 -4 10 -7 23 -8 39 -2 72 -11 70 -20 -1 -5 15 -9 35 -9 47 -1 75
-7 84 -19 4 -6 12 -5 21 3 12 9 16 9 19 0 2 -7 22 -13 43 -15 22 -1 54 -5 70
-9 17 -3 51 -8 78 -10 26 -2 52 -7 57 -10 6 -3 10 0 10 7 0 10 2 10 8 1 11
-18 276 -34 301 -18 6 3 11 2 11 -2 0 -5 15 -8 33 -7 17 1 81 5 141 9 100 5
152 10 246 20 19 2 35 5 35 6 0 1 11 3 25 5 87 10 175 28 295 59 55 14 110 28
123 30 13 2 29 9 37 15 8 7 15 10 15 6 0 -4 11 1 24 9 14 9 30 15 38 14 7 -1
30 5 50 14 21 10 43 17 50 17 8 0 24 7 36 16 12 8 22 13 22 9 0 -3 18 4 40 15
21 11 46 20 55 20 9 0 13 4 10 10 -3 5 0 7 8 4 8 -3 21 1 28 8 8 7 21 14 29
16 8 2 22 9 30 17 8 7 26 16 40 20 14 4 50 22 80 38 30 17 71 39 90 49 19 10
40 24 45 31 6 6 16 13 22 14 7 2 24 13 39 25 14 13 29 23 32 23 11 1 65 37 95
64 15 13 27 21 27 15 0 -5 4 -4 8 1 4 6 19 20 34 31 30 23 134 112 154 131 7
7 15 13 18 13 2 0 18 12 34 28 16 15 36 32 43 38 31 26 129 134 129 143 0 6
20 25 45 44 24 19 42 37 38 41 -3 3 -1 6 5 6 7 0 12 6 12 14 0 8 11 23 25 34
14 11 25 23 25 26 0 4 18 24 40 46 22 22 40 46 40 54 0 8 8 21 19 28 10 7 25
27 34 44 9 17 23 34 32 38 9 3 13 10 10 16 -7 12 27 71 62 106 13 13 26 34 28
47 3 12 12 27 21 34 9 6 13 16 10 21 -3 6 5 23 18 39 13 15 27 39 31 53 4 14
18 38 31 53 13 16 25 37 25 48 2 29 3 32 21 59 9 14 19 40 23 57 4 18 11 33
16 33 5 0 9 8 9 19 0 10 7 24 15 31 9 7 15 20 13 29 -1 9 4 26 10 39 7 12 10
28 6 34 -4 7 -3 8 4 4 8 -5 13 1 14 16 2 42 3 45 16 60 6 8 9 18 5 21 -3 4 -2
12 3 19 6 7 11 27 12 43 2 17 10 45 19 64 8 18 16 39 17 45 2 6 7 29 11 51 5
22 8 46 7 53 -2 6 1 12 5 12 5 0 9 17 10 38 0 20 4 51 7 67 4 17 9 44 11 60 1
17 4 30 5 30 3 0 8 43 11 90 1 22 6 48 11 57 5 10 4 19 -2 23 -6 4 -7 12 -3
18 4 6 8 32 9 57 2 25 5 57 7 73 2 15 0 30 -5 33 -4 3 -6 9 -4 13 12 18 14
101 3 101 -8 0 -8 3 0 11 7 7 8 21 5 33 -4 11 -7 67 -7 123 0 56 -3 99 -7 97
-4 -3 -8 14 -9 38 -1 57 -7 142 -9 148 -1 3 -2 9 -1 14 1 5 -2 12 -8 15 -5 4
-12 35 -15 69 -3 35 -8 67 -11 72 -3 5 -7 21 -9 37 -3 15 -11 48 -19 73 -8 25
-15 48 -16 53 0 4 -1 8 -2 10 -1 3 -7 29 -12 52 -3 11 -12 40 -21 65 -36 98
-53 159 -47 166 3 4 0 4 -6 0 -8 -5 -13 -1 -13 10 0 16 -24 74 -57 137 -8 16
-12 31 -9 34 3 3 -4 19 -15 34 -11 16 -17 29 -12 29 4 0 3 4 -3 8 -11 7 -41
62 -69 125 -10 20 -21 37 -26 37 -5 0 -5 7 -2 17 4 11 3 14 -5 9 -7 -4 -13 -2
-13 3 -1 6 -2 16 -3 21 0 6 -8 15 -16 20 -8 5 -12 10 -8 10 9 0 -72 126 -97
151 -8 9 -15 20 -15 26 0 6 -13 25 -29 42 -16 17 -27 31 -25 31 3 0 -7 12 -21
27 -14 15 -25 31 -25 36 0 4 -15 23 -32 41 -62 65 -113 129 -110 140 2 6 1 8
-3 4 -7 -7 -45 26 -45 40 0 4 -13 16 -29 27 -16 10 -27 23 -25 27 3 4 2 8 -3
8 -4 0 -27 17 -49 38 -72 64 -92 81 -96 76 -3 -2 -11 7 -18 21 -7 14 -19 25
-26 25 -6 0 -27 17 -45 38 -18 20 -36 37 -40 37 -4 0 -20 11 -36 25 -33 29
-146 105 -153 103 -3 -1 -9 5 -13 13 -4 8 -12 14 -18 14 -5 0 -19 9 -31 20
-12 11 -28 20 -35 20 -7 0 -13 5 -13 10 0 6 -6 10 -13 10 -7 0 -22 8 -33 18
-11 9 -26 18 -34 20 -8 2 -18 8 -21 14 -4 6 -12 7 -18 4 -6 -4 -11 -3 -11 3 0
11 -94 61 -116 61 -8 0 -14 4 -14 8 0 9 -89 52 -108 52 -6 0 -32 11 -58 25
-38 20 -50 23 -62 12 -11 -8 -13 -8 -9 0 5 7 -9 17 -37 28 -25 10 -46 16 -48
14 -2 -1 -14 4 -28 11 -28 16 -24 15 -67 25 -19 4 -30 12 -26 18 4 7 0 8 -11
4 -10 -4 -23 -4 -29 0 -7 4 -23 9 -36 11 -14 2 -32 7 -40 11 -9 5 -47 14 -86
21 -38 7 -77 15 -85 18 -18 6 -44 11 -90 16 -19 3 -48 8 -65 12 -16 4 -47 7
-67 7 -21 0 -38 4 -38 7 0 4 -23 8 -51 9 -29 0 -57 5 -63 10 -7 6 -18 6 -25 1
-12 -7 -74 -5 -164 4 -15 2 -30 -1 -33 -5 -3 -5 -14 -4 -25 1 -13 7 -25 7 -37
1 -12 -7 -22 -7 -29 0 -5 5 -12 7 -16 3z m-27 -149 c8 0 20 3 27 8 6 4 14 3
18 -3 4 -6 13 -7 23 -2 9 5 64 7 122 5 58 -3 120 -6 138 -6 17 -1 32 -4 32 -7
0 -3 24 -6 53 -6 28 -1 66 -4 82 -7 17 -4 57 -9 90 -12 33 -3 67 -8 75 -12 8
-3 24 -7 35 -9 11 -1 34 -5 50 -9 17 -4 38 -7 48 -8 9 -1 17 -5 17 -10 0 -4 6
-7 13 -6 12 2 86 -16 117 -28 8 -3 19 -5 24 -4 4 1 14 -3 21 -9 6 -5 24 -11
39 -12 14 -1 26 -5 26 -9 0 -3 7 -6 15 -7 8 -1 22 -3 30 -4 8 -1 15 -5 15 -10
0 -4 9 -8 19 -8 11 0 23 -5 26 -11 4 -6 13 -8 21 -5 8 3 14 1 14 -5 0 -6 3 -8
8 -5 4 2 34 -9 67 -25 33 -16 65 -29 72 -29 7 0 13 -5 13 -12 0 -6 2 -9 6 -6
3 3 24 -5 47 -18 23 -12 75 -40 115 -60 39 -21 72 -41 72 -46 0 -4 3 -7 8 -6
15 3 62 -26 62 -38 0 -8 6 -11 15 -8 9 4 37 -11 69 -35 29 -22 56 -41 60 -41
4 0 24 -16 44 -35 20 -19 41 -35 46 -35 5 0 17 -10 27 -22 11 -11 19 -18 19
-14 0 3 21 -14 48 -39 26 -25 51 -45 55 -45 5 0 31 -24 59 -52 27 -29 56 -52
65 -50 9 2 12 -1 8 -7 -3 -6 -2 -11 4 -11 6 0 13 -11 17 -25 3 -14 11 -25 16
-25 5 0 34 -25 63 -55 30 -30 53 -55 51 -55 -2 0 14 -19 35 -41 22 -23 39 -46
39 -51 0 -5 5 -6 10 -3 6 4 9 3 8 -2 -2 -5 14 -29 35 -54 20 -25 37 -49 37
-52 0 -3 10 -17 23 -31 37 -41 44 -52 66 -100 12 -25 26 -46 32 -46 6 0 7 -4
4 -10 -3 -5 -1 -10 5 -10 6 0 8 -4 5 -10 -3 -5 1 -10 10 -10 9 0 14 -4 11 -9
-3 -5 2 -19 12 -32 10 -13 29 -44 42 -69 12 -25 26 -52 31 -60 5 -8 18 -36 30
-62 12 -27 25 -48 30 -48 5 0 8 -4 7 -8 -4 -11 21 -76 54 -140 14 -28 21 -49
15 -45 -9 5 -9 3 -1 -8 10 -13 43 -101 51 -139 5 -22 9 -32 21 -63 7 -16 12
-35 12 -43 0 -8 4 -14 8 -14 5 0 8 -12 7 -27 -1 -16 2 -35 6 -44 5 -9 10 -31
11 -48 1 -17 6 -31 11 -31 4 0 5 -4 2 -10 -3 -5 -3 -16 1 -22 5 -7 9 -19 11
-28 1 -8 6 -35 11 -59 6 -25 8 -51 5 -58 -3 -7 -1 -13 4 -13 6 0 9 -15 8 -32
-2 -18 2 -38 7 -45 5 -7 5 -14 -2 -18 -6 -4 -7 -12 -1 -24 6 -10 10 -26 10
-37 3 -139 7 -214 11 -214 9 0 6 -43 -3 -57 -4 -6 -3 -14 2 -17 4 -3 7 -20 4
-38 -2 -18 -5 -85 -7 -148 -2 -63 -6 -124 -9 -135 -3 -11 -8 -51 -11 -89 -4
-38 -10 -74 -13 -79 -3 -5 -7 -25 -9 -45 -6 -61 -16 -106 -27 -120 -5 -7 -7
-15 -4 -19 4 -3 2 -12 -3 -18 -6 -7 -13 -32 -16 -56 -3 -24 -6 -51 -8 -61 -1
-9 -8 -23 -15 -32 -8 -9 -10 -16 -6 -16 4 0 2 -7 -5 -15 -6 -8 -9 -18 -6 -23
3 -5 -4 -28 -15 -51 -11 -23 -17 -45 -15 -50 3 -5 -1 -14 -10 -21 -8 -7 -13
-19 -10 -26 2 -6 2 -15 -2 -19 -4 -4 -7 -10 -8 -13 -2 -16 -18 -48 -32 -64 -8
-10 -12 -18 -7 -18 4 0 2 -7 -5 -15 -7 -9 -10 -18 -7 -21 3 -4 -5 -24 -19 -45
-14 -22 -22 -44 -20 -48 3 -5 -8 -28 -25 -51 -17 -24 -32 -49 -33 -56 -1 -7
-16 -35 -33 -61 -17 -26 -44 -72 -59 -102 -16 -29 -35 -56 -41 -58 -7 -3 -13
-10 -13 -15 0 -5 -9 -22 -20 -38 -11 -15 -16 -30 -12 -34 4 -4 1 -6 -6 -4 -6
2 -23 -15 -35 -37 -13 -22 -29 -39 -35 -38 -7 2 -12 -2 -12 -8 0 -6 -11 -24
-25 -41 -14 -16 -25 -36 -25 -43 0 -8 -16 -27 -35 -42 -19 -15 -35 -33 -35
-40 0 -7 -8 -17 -18 -22 -10 -6 -30 -26 -43 -45 -13 -20 -29 -36 -35 -36 -6 0
-18 -8 -25 -17 -12 -15 -12 -16 1 -8 8 4 -3 -8 -25 -28 -22 -20 -44 -36 -48
-37 -5 0 -5 -5 -2 -10 3 -5 1 -10 -4 -10 -6 0 -37 -25 -68 -56 -32 -31 -80
-69 -108 -85 -27 -16 -47 -29 -42 -29 4 0 -10 -16 -32 -35 -21 -19 -45 -35
-52 -35 -8 0 -27 -14 -42 -30 -16 -17 -34 -30 -40 -30 -11 0 -86 -46 -114 -70
-7 -5 -15 -10 -18 -10 -4 0 -23 -12 -43 -28 -20 -15 -32 -20 -27 -12 7 13 6
13 -11 0 -10 -9 -44 -29 -74 -45 -30 -16 -70 -37 -87 -47 -18 -10 -33 -15 -33
-12 0 4 -6 1 -13 -5 -8 -6 -22 -12 -33 -14 -11 -1 -36 -13 -55 -25 -20 -12
-41 -22 -47 -22 -6 0 -23 -5 -39 -12 -15 -6 -34 -12 -41 -14 -7 -1 -25 -10
-39 -19 -17 -12 -23 -13 -17 -4 6 11 5 12 -7 3 -20 -15 -132 -50 -184 -57 -11
-2 -35 -10 -53 -19 -18 -9 -30 -12 -27 -7 4 5 -1 9 -9 9 -8 0 -18 -4 -21 -10
-3 -5 -19 -10 -35 -10 -16 0 -55 -6 -87 -14 -85 -21 -115 -25 -329 -40 -29 -2
-57 -6 -62 -10 -6 -3 -13 -2 -17 4 -4 6 -13 7 -23 1 -9 -4 -26 -7 -37 -5 -11
2 -73 4 -137 6 -65 1 -118 6 -118 11 0 4 -6 5 -12 1 -15 -10 -48 -13 -48 -5 0
3 -17 6 -38 7 -55 1 -187 17 -242 31 -14 3 -41 7 -60 10 -19 2 -37 9 -41 15
-4 7 -9 7 -14 -1 -5 -8 -11 -9 -19 -2 -7 6 -21 12 -32 14 -10 2 -26 7 -35 11
-9 4 -20 6 -25 4 -5 -1 -18 3 -29 9 -11 6 -41 14 -67 18 -27 4 -48 11 -48 15
0 5 -8 7 -17 6 -10 -2 -24 4 -31 13 -10 12 -12 13 -6 1 5 -10 0 -9 -14 4 -12
11 -22 16 -22 12 0 -3 -15 0 -34 8 -19 8 -37 12 -40 8 -3 -3 -6 1 -6 8 0 7 -3
10 -7 7 -3 -4 -27 5 -52 20 -25 15 -48 26 -51 26 -3 0 -15 3 -28 8 -13 5 -28
9 -33 9 -5 0 -9 5 -9 10 0 6 -6 10 -13 10 -6 0 -34 12 -61 26 -26 14 -50 23
-53 20 -3 -2 -15 6 -28 20 -12 13 -27 24 -34 24 -6 0 -29 11 -51 25 -22 14
-40 23 -40 19 0 -3 -7 2 -16 10 -8 9 -22 16 -30 16 -8 0 -13 3 -11 8 6 9 -19
33 -27 25 -3 -4 -6 -1 -6 5 0 7 -6 12 -14 12 -8 0 -21 6 -28 12 -26 24 -97 78
-103 78 -6 0 -22 13 -53 41 -9 8 -39 33 -66 55 -27 21 -71 61 -98 87 -26 26
-48 45 -48 42 0 -4 -7 0 -15 9 -8 8 -15 19 -15 25 0 5 -5 13 -12 17 -7 5 -8 3
-3 -7 5 -8 -4 -1 -18 14 -15 15 -27 32 -27 38 0 5 -7 9 -16 9 -8 0 -12 5 -9
10 3 6 -2 10 -11 10 -10 0 -14 3 -11 7 4 3 -5 16 -18 29 -14 13 -25 28 -25 33
0 6 -7 7 -17 4 -11 -4 -14 -3 -9 5 7 11 -21 49 -67 90 -9 9 -17 20 -17 25 0 8
-21 36 -71 96 -11 13 -27 37 -36 54 -8 17 -22 37 -29 45 -8 7 -14 19 -14 27 0
7 -6 15 -13 18 -7 3 -29 35 -47 71 -19 36 -38 66 -43 66 -4 0 -5 5 -2 11 4 5
-3 19 -16 30 -12 10 -19 19 -15 19 8 0 -22 59 -42 83 -8 9 -12 17 -7 17 4 0 0
11 -9 25 -9 14 -14 25 -11 25 2 0 -5 18 -16 40 -11 21 -18 44 -14 50 4 6 1 9
-5 8 -7 -2 -14 4 -16 12 -2 8 -15 47 -29 85 -14 39 -27 75 -28 80 -2 6 -6 15
-9 21 -4 6 -6 20 -3 32 2 11 -3 23 -11 26 -8 3 -14 15 -14 26 0 11 -5 20 -12
20 -9 0 -9 3 -1 11 8 8 7 20 -3 44 -7 18 -16 47 -19 65 -3 18 -10 40 -14 49
-9 16 -19 67 -27 131 -3 19 -6 49 -9 65 -16 117 -23 188 -30 284 -3 41 -7 76
-9 78 -2 3 -1 17 3 31 4 15 5 38 1 52 -4 14 -3 33 2 43 5 9 5 17 1 17 -10 0
-9 118 1 127 3 3 1 12 -5 20 -8 8 -8 13 -1 13 6 0 9 8 7 18 -1 9 2 27 6 40 6
15 5 22 -4 22 -8 0 -8 3 -2 8 6 4 11 18 11 32 1 14 4 43 8 65 4 22 8 58 10 80
1 22 5 49 9 60 3 11 9 40 12 65 4 24 11 52 16 61 5 10 10 34 11 53 2 20 6 36
10 36 3 0 5 8 4 18 -2 9 0 26 5 37 16 43 22 61 26 78 2 10 9 28 15 40 7 12 11
26 10 31 -2 4 6 23 17 42 12 20 16 34 9 34 -6 0 -3 9 7 20 10 11 15 20 11 20
-4 0 -4 6 1 13 4 6 8 14 9 17 2 12 35 88 53 123 11 20 14 34 8 30 -7 -3 -5 2
4 13 18 22 72 114 75 129 8 33 32 82 52 103 12 14 22 31 22 39 0 8 11 26 25
41 14 15 25 30 25 35 0 7 9 20 37 52 7 7 13 18 13 23 0 6 11 20 25 33 13 13
25 28 25 32 0 8 10 21 38 52 7 8 10 15 6 15 -4 0 5 9 20 21 14 11 26 25 26 30
0 5 18 28 40 50 22 22 40 44 40 49 0 7 70 78 125 127 12 10 14 14 6 8 -10 -6
-8 0 4 16 13 18 22 23 27 15 7 -10 12 -1 9 17 0 4 4 7 9 7 6 0 20 11 32 25 12
14 28 25 35 25 8 0 11 5 8 10 -3 6 0 10 7 10 7 0 22 12 33 27 11 14 43 41 72
60 29 18 56 41 62 50 5 10 12 15 16 12 3 -3 22 9 42 27 20 19 39 32 41 29 2
-2 16 7 30 20 14 13 29 22 33 20 4 -3 12 2 19 10 7 8 19 15 26 15 8 0 14 4 14
9 0 5 17 21 37 37 20 15 33 23 30 17 -5 -8 0 -8 17 0 13 7 22 15 20 19 -3 5 4
8 14 8 11 0 25 7 32 15 7 9 15 13 18 11 2 -3 22 6 43 20 21 13 39 22 39 19 0
-3 10 3 22 15 12 11 36 24 52 29 52 16 117 41 146 56 15 8 31 11 34 7 4 -3 11
0 16 8 5 8 13 15 17 16 24 2 71 18 92 31 16 10 21 11 16 2 -6 -9 -3 -10 11 -4
10 4 46 17 79 29 33 12 66 25 73 29 7 5 12 4 12 -3 0 -7 6 -8 18 -1 9 5 33 12
52 16 19 3 44 8 55 10 11 2 56 11 100 19 155 29 185 33 185 24 0 -5 6 -6 13
-1 15 9 25 11 101 17 32 3 61 8 64 10 3 3 10 2 16 -2 6 -3 18 -7 26 -7z m2440
-4779 c0 -2 -7 -9 -15 -16 -13 -11 -14 -10 -9 4 5 14 24 23 24 12z"/>
<path d="M3914 6296 c-10 -24 -23 -42 -29 -39 -5 4 -7 3 -3 -2 4 -4 3 -14 -3
-22 -6 -7 -8 -13 -5 -13 4 0 -4 -15 -18 -33 -15 -19 -26 -37 -26 -41 0 -5 -10
-22 -22 -39 -25 -35 -30 -77 -10 -77 18 0 38 21 47 50 13 41 25 52 43 38 13
-11 14 -11 7 2 -7 12 -6 13 6 3 8 -6 30 -13 49 -15 27 -2 35 -8 36 -23 3 -55
5 -65 20 -80 9 -9 19 -14 22 -11 9 10 11 60 2 71 -5 6 -8 28 -7 48 2 20 -1 37
-5 37 -5 0 -6 5 -3 10 3 6 2 10 -3 10 -6 0 -9 14 -8 31 1 16 -1 32 -5 35 -5 3
-6 11 -3 18 3 8 1 17 -4 20 -6 3 -8 15 -5 26 4 15 -2 22 -22 30 -14 5 -28 10
-30 10 -2 0 -11 -20 -21 -44z m44 -48 c2 -18 6 -35 10 -38 9 -7 8 -47 -2 -57
-10 -11 -56 -11 -56 0 0 4 -5 5 -11 1 -17 -10 -1 46 19 70 13 15 14 18 2 11
-8 -4 -4 4 9 18 14 15 25 27 26 27 0 0 2 -14 3 -32z"/>
<path d="M3485 6261 c-16 -9 -32 -17 -34 -18 -9 -5 -8 -53 0 -53 6 0 7 -4 4
-10 -3 -5 -3 -10 2 -10 4 0 14 -4 22 -9 11 -7 9 -15 -12 -42 -32 -43 -38 -73
-15 -74 10 0 30 21 47 48 25 39 36 47 60 47 28 0 29 -2 26 -42 -1 -24 3 -46 9
-50 23 -15 34 -7 32 23 -1 16 1 32 6 35 5 3 5 11 1 17 -4 7 -7 43 -8 82 l0 70
-55 1 c-32 0 -68 -6 -85 -15z m95 -20 c3 -1 6 -17 7 -37 2 -35 1 -36 -27 -32
-16 3 -31 0 -32 -4 -2 -5 -13 2 -25 15 -37 43 0 70 77 58z"/>
<path d="M3219 6249 c-21 -15 -22 -19 -7 -24 9 -4 25 -3 35 2 20 10 28 10 60
-1 16 -5 22 -14 19 -29 -3 -21 -7 -23 -54 -26 -44 -2 -86 -77 -61 -107 6 -8 8
-14 3 -14 -5 0 -1 -5 9 -11 34 -20 64 -19 92 3 21 16 29 18 35 8 4 -7 15 -10
23 -7 11 4 14 16 11 44 -2 21 -6 61 -7 88 -3 44 -8 53 -36 72 -39 26 -89 27
-122 2z m108 -96 c-4 -3 -3 -11 3 -18 15 -18 0 -55 -30 -70 -25 -13 -29 -12
-42 3 -22 26 -16 50 17 72 28 18 67 28 52 13z"/>
<path d="M3098 6243 c-10 -2 -18 -8 -18 -12 0 -4 -8 -16 -17 -27 -33 -36 -48
-58 -35 -50 6 4 12 2 12 -3 0 -27 -36 -3 -37 24 0 35 -13 53 -33 48 -16 -4
-19 -12 -15 -42 2 -20 4 -36 5 -36 1 0 3 -9 5 -20 2 -11 8 -44 14 -74 6 -29
11 -56 11 -58 0 -2 8 1 18 6 15 8 18 20 16 55 -2 31 2 46 12 50 8 3 14 1 14
-4 0 -5 10 -10 22 -12 13 -2 30 -17 41 -39 14 -27 24 -35 38 -32 22 6 36 23
20 23 -6 0 -11 7 -11 15 0 8 -4 15 -10 15 -5 0 -10 6 -10 13 0 15 -40 42 -57
39 -7 -2 -13 6 -13 18 0 11 4 20 9 20 5 0 13 10 17 23 4 12 15 28 26 35 10 7
16 18 13 23 -6 9 -9 10 -37 2z"/>
<path d="M2771 6154 c-34 -36 -40 -48 -37 -78 2 -19 11 -46 20 -60 9 -14 16
-30 16 -35 0 -6 19 -15 43 -22 34 -9 50 -8 82 3 41 15 61 46 28 43 -10 0 -23
-3 -28 -6 -6 -4 -26 -6 -45 -5 -27 1 -39 8 -57 35 -16 24 -22 44 -19 64 2 16
6 30 8 31 45 29 65 39 82 40 12 1 22 8 24 16 2 12 -7 16 -37 16 -33 0 -45 -6
-80 -42z"/>
<path d="M4163 6188 c-1 -48 -42 -158 -58 -158 -21 0 -40 -29 -27 -42 25 -25
103 39 93 76 -1 6 2 19 7 30 6 12 13 29 16 38 4 14 12 16 38 11 18 -3 35 -7
37 -9 2 -2 -2 -23 -8 -46 -7 -24 -14 -53 -16 -64 -1 -12 -8 -30 -13 -41 -12
-21 -5 -37 19 -41 10 -1 19 10 27 34 10 32 9 34 -6 22 -16 -12 -16 -11 0 7 9
11 23 47 32 80 14 55 14 60 -2 75 -9 9 -25 14 -34 12 -10 -2 -18 0 -18 5 0 5
-10 9 -22 9 -13 0 -32 4 -44 7 -14 5 -21 3 -21 -5z"/>
<path d="M2531 6091 c-18 -14 -43 -25 -55 -26 -25 0 -29 -29 -8 -62 8 -12 10
-28 6 -34 -4 -8 -3 -9 4 -5 8 5 12 0 12 -13 0 -11 4 -22 9 -25 8 -6 25 -64 22
-79 -1 -4 6 -15 14 -23 8 -9 13 -19 10 -24 -3 -5 -1 -12 5 -15 8 -5 7 -11 -1
-22 -17 -19 -68 -45 -78 -39 -4 3 -31 -10 -59 -29 -28 -18 -62 -37 -74 -40
-13 -4 -32 -15 -43 -24 -28 -24 -75 -53 -75 -46 0 4 -15 -4 -32 -17 -18 -13
-36 -23 -40 -23 -3 0 -20 -12 -37 -27 -17 -16 -34 -28 -37 -28 -3 0 -28 -18
-54 -40 -26 -22 -51 -36 -55 -32 -5 4 -5 2 -2 -4 4 -7 -5 -20 -21 -30 -15 -9
-36 -27 -47 -38 -11 -12 -41 -38 -67 -60 -26 -21 -45 -42 -42 -47 3 -5 1 -8
-4 -7 -9 3 -214 -215 -221 -235 -2 -7 -15 -20 -28 -30 -13 -10 -21 -22 -18
-27 3 -5 1 -11 -5 -15 -6 -4 -7 -11 -4 -17 4 -6 3 -8 -2 -5 -11 6 -46 -44
-114 -163 -24 -41 -50 -83 -58 -92 -8 -10 -12 -18 -7 -18 4 0 2 -7 -5 -15 -7
-8 -9 -15 -5 -15 5 0 2 -8 -6 -17 -21 -27 -45 -78 -84 -183 -19 -52 -40 -104
-45 -115 -5 -11 -12 -32 -14 -47 -2 -14 -10 -37 -17 -50 -7 -12 -12 -24 -11
-25 1 -2 2 -4 1 -5 0 -2 -3 -14 -5 -28 -8 -48 -11 -65 -14 -65 -1 0 -4 -16 -7
-35 -2 -19 -9 -40 -13 -46 -5 -5 -12 -39 -16 -75 -3 -35 -11 -70 -16 -76 -7
-9 -7 -13 0 -13 6 0 9 -6 7 -12 -12 -34 -17 -141 -16 -328 1 -252 1 -250 14
-250 8 0 8 -3 0 -11 -7 -7 -6 -21 2 -47 7 -20 10 -41 7 -47 -8 -13 -9 -28 -2
-35 12 -11 28 -70 19 -70 -5 0 -3 -10 4 -22 8 -13 13 -33 12 -45 -1 -13 0 -23
4 -23 3 0 7 -10 8 -23 2 -23 10 -60 13 -64 2 -2 4 -7 5 -13 1 -5 4 -13 5 -17
1 -5 2 -12 1 -16 -1 -4 4 -18 11 -30 7 -12 11 -25 10 -29 -1 -5 3 -8 9 -8 5 0
8 -4 4 -9 -3 -6 3 -33 14 -60 10 -28 17 -51 15 -51 -2 0 5 -16 16 -35 11 -20
20 -42 20 -50 0 -8 4 -15 8 -15 8 0 36 -60 33 -73 -1 -4 5 -15 14 -23 8 -9 15
-22 15 -30 0 -8 5 -14 10 -14 6 0 10 -7 10 -16 0 -8 20 -47 45 -86 25 -38 40
-67 33 -63 -7 4 -3 -2 9 -12 12 -10 23 -24 25 -32 3 -15 21 -41 48 -70 9 -9
29 -36 45 -61 17 -25 38 -51 47 -58 10 -7 18 -17 18 -22 0 -5 12 -22 28 -38
15 -16 45 -50 67 -75 21 -25 44 -43 50 -40 5 4 7 3 3 -2 -9 -9 57 -76 125
-128 26 -20 48 -40 49 -44 1 -4 20 -21 42 -37 22 -16 49 -38 60 -48 11 -10 25
-18 32 -18 6 0 17 -7 24 -15 7 -8 16 -12 21 -9 5 3 6 -3 2 -13 -3 -10 -3 -15
2 -11 11 10 47 -11 40 -22 -3 -6 1 -7 9 -4 9 3 16 1 16 -5 0 -6 7 -11 15 -11
8 0 15 -5 15 -11 0 -5 5 -7 10 -4 6 3 10 2 10 -3 0 -4 15 -16 33 -25 17 -9 39
-21 47 -27 8 -5 52 -27 98 -49 46 -22 90 -45 98 -52 8 -6 14 -9 14 -5 0 4 10
0 23 -7 12 -8 41 -20 65 -27 23 -7 42 -18 42 -23 0 -5 9 -7 20 -4 11 3 20 1
20 -5 0 -5 3 -7 8 -5 4 3 18 0 32 -6 31 -12 49 -17 77 -20 11 -1 19 -5 16 -9
-5 -9 1 -10 49 -12 17 0 33 -7 36 -14 2 -6 7 -10 11 -8 4 3 25 1 47 -4 38 -9
57 -12 139 -24 22 -4 58 -9 80 -13 22 -3 57 -6 77 -6 21 0 36 -3 34 -6 -2 -3
21 -6 52 -6 32 1 64 -2 73 -7 9 -4 19 -5 22 -1 3 3 57 6 119 7 63 1 120 6 127
11 10 6 12 4 6 -5 -5 -9 -4 -11 3 -6 6 4 26 9 44 11 18 2 49 6 68 9 19 3 58 8
85 11 71 8 78 10 93 18 6 5 16 6 21 2 5 -3 12 -1 16 5 4 6 10 8 14 6 4 -3 41
4 82 15 41 11 82 21 91 23 10 1 21 6 25 11 5 4 2 5 -6 0 -9 -5 -12 -4 -7 3 3
6 17 9 31 6 13 -2 27 0 30 6 3 5 15 10 26 10 11 0 31 7 44 16 14 9 25 13 25 9
0 -4 12 0 26 10 14 9 34 18 44 20 24 5 215 99 237 117 14 11 15 11 9 0 -7 -12
68 36 113 71 7 6 20 12 29 13 8 2 19 10 24 18 5 9 16 16 23 16 8 0 15 4 15 9
0 5 26 26 58 47 31 21 65 46 74 56 10 9 31 24 47 34 16 10 32 27 35 38 3 11 8
17 11 14 7 -7 38 18 89 69 99 100 131 136 131 145 0 5 7 15 15 21 8 7 30 35
47 62 18 28 35 49 38 48 3 -2 6 0 7 5 2 8 15 25 43 55 11 12 20 24 20 27 1 3
14 25 30 50 16 25 28 48 27 53 -1 4 3 7 8 7 6 0 10 7 10 15 0 8 11 22 25 31
14 9 23 20 20 24 -3 4 5 20 17 36 13 15 16 24 8 19 -12 -7 -12 -5 1 11 26 32
34 48 18 39 -8 -5 -5 3 7 16 12 13 32 50 45 83 13 32 30 61 37 64 9 3 10 7 3
12 -8 4 -7 15 3 36 18 36 38 85 42 101 6 30 28 89 37 101 5 6 6 12 1 12 -4 0
-3 5 3 11 6 6 9 18 6 25 -3 8 1 22 8 31 12 14 12 15 1 9 -12 -7 -12 -5 -1 15
8 13 14 33 14 44 1 11 7 30 13 43 7 12 10 27 7 32 -3 5 0 12 6 16 8 5 7 9 -2
14 -10 7 -10 12 -1 23 7 8 11 25 11 38 -1 13 1 40 4 59 14 85 19 144 23 270 2
74 5 140 5 145 0 6 -3 24 -6 40 -4 17 -7 56 -8 87 -1 31 -4 55 -7 53 -3 -2 -5
14 -4 36 1 21 -1 39 -5 39 -3 0 -6 17 -6 38 1 20 -4 51 -11 69 -7 17 -10 34
-7 37 3 3 2 13 -2 23 -5 10 -9 25 -10 33 -7 55 -19 100 -27 100 -5 0 -8 8 -7
18 2 9 -5 34 -14 55 -9 21 -13 45 -10 54 4 10 2 14 -4 10 -10 -6 -22 27 -28
76 -1 11 -8 22 -15 27 -7 4 -10 15 -7 25 4 9 3 14 -3 10 -6 -3 -10 2 -10 12 0
10 -7 29 -16 41 -8 12 -13 26 -10 31 3 5 -1 12 -10 15 -9 4 -14 9 -11 13 4 3
-2 18 -13 33 -11 16 -20 37 -20 49 0 11 -6 24 -14 28 -14 9 -40 53 -31 53 3 0
1 6 -5 13 -41 49 -50 62 -50 79 0 10 -5 18 -11 18 -5 0 -15 14 -20 30 -6 17
-15 30 -20 30 -5 0 -9 4 -9 10 0 9 -25 42 -57 76 -7 7 -13 17 -13 23 0 6 -5
11 -11 11 -5 0 -7 5 -3 12 5 8 2 9 -10 5 -9 -4 -15 -3 -11 2 3 5 -17 35 -44
67 -27 32 -47 62 -45 66 3 5 2 7 -3 6 -11 -4 -117 102 -126 126 -4 9 -11 15
-16 11 -6 -3 -14 3 -20 12 -6 10 -11 15 -11 11 0 -3 -23 17 -52 45 -28 29 -48
45 -44 37 5 -8 -3 -4 -16 10 -43 43 -71 64 -153 117 -44 28 -88 58 -97 67 -10
9 -18 13 -18 10 0 -3 -13 4 -29 15 -16 12 -33 21 -38 21 -4 0 -19 9 -33 20
-14 11 -33 20 -42 20 -10 0 -18 4 -18 8 0 5 -27 20 -60 33 -33 13 -60 27 -60
31 0 5 -10 8 -22 8 -12 0 -29 7 -38 15 -10 9 -27 18 -39 20 -29 5 -95 28 -101
35 -3 3 -12 6 -20 6 -21 0 -92 24 -108 37 -7 5 -15 7 -18 4 -3 -3 -18 -1 -33
5 -14 5 -35 11 -46 13 -11 2 -45 8 -75 14 -30 7 -77 14 -105 17 -27 4 -61 8
-75 9 -14 2 -25 4 -25 5 0 1 -14 3 -30 4 -17 1 -36 6 -43 10 -7 4 -12 2 -12
-5 0 -8 -4 -8 -12 -2 -17 13 -453 7 -453 -7 0 0 -27 -3 -60 -5 -33 -2 -78 -8
-100 -14 -22 -5 -42 -10 -45 -11 -31 -6 -57 -15 -67 -23 -8 -6 -13 -6 -13 0 0
5 -13 8 -30 5 -16 -2 -30 -8 -30 -12 0 -4 -17 -10 -37 -13 -60 -10 -72 -13
-79 -20 -4 -4 -16 -7 -26 -7 -10 0 -18 -4 -18 -10 0 -5 -10 -10 -22 -10 -13 0
-41 -6 -63 -14 -35 -12 -74 -11 -61 2 3 2 -1 17 -9 33 -14 26 -14 29 6 40 12
6 30 9 40 6 12 -3 19 0 19 9 0 8 3 13 8 12 16 -5 51 23 46 36 -3 8 -1 17 4 20
13 8 -2 83 -22 105 -9 10 -13 21 -9 24 6 6 -4 9 -23 6 -4 0 -10 5 -15 12 -14
23 -62 18 -98 -10z m101 -35 c4 -6 8 -18 8 -27 0 -9 7 -19 14 -22 30 -12 -19
-107 -54 -107 -5 0 -10 5 -10 12 0 6 -3 8 -6 5 -11 -11 -44 13 -44 31 0 9 -7
25 -14 35 -19 25 0 74 34 86 28 10 61 4 72 -13z m915 -182 c67 1 120 -1 118
-4 -2 -3 17 -6 41 -6 119 -5 139 -7 176 -20 21 -7 36 -9 33 -4 -3 5 11 3 32
-4 21 -7 46 -12 56 -10 9 1 17 -2 17 -8 0 -5 6 -8 13 -5 17 5 215 -49 235 -65
13 -11 14 -11 7 1 -6 11 -2 10 21 -2 16 -8 44 -21 62 -29 17 -7 32 -16 32 -20
0 -5 8 -8 19 -8 23 0 166 -65 175 -79 4 -5 13 -8 21 -4 8 3 15 1 15 -4 0 -6
18 -18 40 -28 22 -10 40 -21 40 -24 0 -4 12 -12 28 -19 53 -24 83 -44 89 -58
3 -8 13 -14 24 -14 10 0 22 -6 26 -13 4 -7 21 -21 38 -31 40 -26 139 -107 143
-117 2 -5 10 -9 18 -9 9 0 12 -4 9 -10 -3 -5 -2 -10 4 -10 6 0 60 -49 121
-110 60 -60 108 -110 105 -110 -2 0 10 -15 28 -33 18 -18 33 -39 35 -46 2 -11
70 -99 92 -121 3 -3 14 -22 25 -42 11 -21 24 -38 29 -38 5 0 7 -3 3 -6 -3 -3
4 -17 16 -31 12 -13 22 -28 22 -31 2 -18 17 -52 24 -52 4 0 13 -16 20 -35 7
-19 17 -35 22 -35 5 0 9 -4 9 -9 0 -5 10 -30 22 -57 12 -27 23 -55 24 -63 2
-8 7 -17 13 -21 6 -3 12 -21 14 -40 3 -19 9 -36 16 -38 6 -2 9 -8 5 -13 -3 -5
-1 -9 4 -9 8 0 20 -40 22 -72 1 -4 7 -19 15 -34 7 -15 11 -33 8 -40 -3 -8 0
-14 7 -14 7 0 10 -7 7 -15 -4 -8 -2 -17 4 -21 6 -3 8 -12 5 -19 -3 -8 0 -15 5
-17 6 -2 12 -25 13 -50 2 -26 8 -53 13 -60 6 -7 9 -21 8 -30 -2 -10 0 -18 5
-18 4 0 6 -15 3 -34 -2 -19 0 -37 5 -40 4 -2 7 -25 6 -50 -1 -25 1 -46 5 -46
8 0 10 -18 13 -137 1 -57 5 -90 11 -86 6 3 7 1 3 -5 -4 -6 -9 -67 -12 -134 -2
-68 -7 -136 -10 -153 -3 -16 -7 -48 -9 -70 -2 -22 -7 -49 -11 -59 -5 -14 -4
-17 5 -11 10 6 11 3 1 -14 -6 -12 -13 -35 -15 -52 -2 -17 -10 -38 -17 -47 -11
-13 -11 -14 0 -8 12 7 12 4 2 -14 -6 -12 -10 -30 -7 -41 3 -10 1 -19 -5 -21
-5 -2 -11 -15 -12 -28 -2 -14 -11 -52 -21 -85 -10 -33 -18 -63 -17 -67 1 -5
-3 -8 -8 -8 -6 0 -10 -6 -8 -12 1 -7 -3 -23 -10 -35 -7 -13 -10 -23 -7 -23 3
0 -6 -21 -20 -46 -14 -26 -24 -51 -22 -57 2 -6 -18 -49 -45 -95 -26 -46 -48
-89 -48 -96 0 -7 -11 -26 -24 -41 -14 -16 -23 -32 -21 -35 3 -4 -9 -25 -25
-46 -16 -21 -30 -45 -30 -51 0 -7 -4 -13 -8 -13 -4 0 -16 -15 -27 -32 -10 -18
-29 -41 -42 -51 -13 -10 -21 -22 -18 -27 3 -5 -3 -13 -12 -19 -10 -6 -15 -11
-10 -11 4 0 -1 -8 -10 -18 -30 -31 -86 -97 -87 -102 0 -3 -4 -4 -8 -3 -5 2 -7
-1 -5 -6 1 -5 -10 -20 -25 -34 -16 -14 -28 -30 -28 -35 0 -5 -34 -36 -75 -69
-41 -33 -71 -64 -67 -68 4 -3 2 -5 -3 -3 -11 3 -92 -59 -138 -107 -16 -16 -26
-23 -22 -15 3 8 -2 5 -11 -8 -9 -12 -21 -22 -26 -22 -6 0 -28 -14 -49 -31 -21
-17 -39 -28 -39 -25 0 3 -15 -3 -32 -14 -18 -11 -46 -27 -63 -36 -16 -9 -33
-22 -37 -28 -4 -6 -8 -7 -8 -3 0 5 -12 -1 -26 -12 -15 -11 -30 -18 -35 -15 -5
3 -9 0 -9 -7 0 -7 -3 -9 -6 -6 -4 4 -19 -2 -34 -13 -15 -11 -36 -21 -46 -23
-11 -1 -32 -11 -47 -22 -25 -16 -37 -20 -80 -24 -5 -1 -5 -6 -1 -13 4 -7 3 -8
-4 -4 -6 4 -19 2 -29 -3 -22 -12 -58 -23 -59 -19 0 2 -8 -3 -17 -11 -10 -7
-17 -10 -17 -6 0 4 -6 3 -13 -4 -8 -6 -22 -9 -33 -7 -11 2 -41 -6 -67 -19 -26
-12 -59 -21 -74 -19 -15 1 -34 -3 -42 -9 -7 -6 -34 -12 -60 -13 -25 -1 -48 -3
-51 -4 -3 -2 -9 -4 -15 -5 -5 -2 -12 -4 -15 -5 -3 -1 -23 -3 -45 -6 -54 -5
-73 -9 -80 -16 -3 -3 -21 -2 -40 2 -19 4 -36 5 -39 3 -3 -3 -41 -7 -84 -8 -44
-1 -84 -5 -91 -9 -6 -4 -11 -3 -11 2 0 6 -27 9 -60 7 -33 -1 -60 1 -60 4 0 4
-20 6 -46 5 -25 -1 -64 2 -87 7 -23 4 -62 9 -87 12 -72 8 -170 30 -170 39 0 5
-9 4 -20 -2 -14 -7 -20 -7 -20 0 0 5 -9 10 -19 10 -11 0 -39 8 -63 19 -24 10
-51 17 -60 15 -10 -1 -18 2 -18 7 0 6 -4 8 -9 5 -4 -3 -16 1 -27 8 -10 8 -24
12 -31 9 -7 -3 -13 -1 -13 4 0 5 -10 9 -22 10 -11 1 -25 8 -29 15 -5 7 -9 9
-9 5 0 -5 -6 -5 -12 0 -7 4 -22 9 -32 10 -10 2 -25 11 -33 21 -8 9 -11 10 -7
3 5 -9 -5 -6 -23 7 -17 12 -38 22 -47 22 -9 0 -16 5 -16 11 0 5 -5 7 -10 4 -6
-3 -17 1 -26 10 -9 9 -23 14 -30 11 -8 -3 -14 0 -14 7 0 12 -30 28 -77 42 -13
3 -23 13 -23 21 0 8 -4 13 -9 10 -5 -4 -11 -3 -13 2 -1 4 -29 23 -60 42 -32
19 -58 38 -58 43 0 4 -5 5 -10 2 -6 -3 -10 -2 -10 4 0 5 -9 13 -21 16 -11 4
-18 9 -15 13 4 3 -14 17 -39 32 -25 15 -42 29 -38 33 3 4 1 7 -4 7 -6 0 -31
18 -55 40 -23 22 -46 40 -50 40 -5 0 -8 8 -8 17 0 9 -3 14 -6 11 -6 -7 -111
96 -163 160 -19 23 -39 38 -44 35 -6 -4 -8 0 -5 9 4 8 -2 20 -13 27 -11 6 -17
16 -14 21 3 6 0 10 -7 10 -17 0 -41 37 -33 51 4 5 1 8 -6 7 -7 -2 -18 7 -24
19 -5 13 -13 23 -17 23 -5 0 -8 6 -8 14 0 8 -3 16 -7 18 -13 5 -76 102 -76
116 0 6 -4 12 -8 12 -4 0 -13 16 -20 35 -7 19 -19 35 -27 35 -7 0 -11 4 -8 8
3 5 -7 33 -22 63 -14 30 -27 60 -28 68 -2 8 -9 18 -16 22 -7 5 -9 9 -5 9 5 0
5 6 0 13 -4 6 -8 18 -10 26 -1 8 -6 17 -10 20 -5 3 -15 26 -23 51 -8 25 -20
54 -26 65 -7 11 -14 31 -16 45 -2 14 -6 30 -10 35 -3 6 -9 28 -13 50 -4 22
-10 45 -14 50 -3 6 -6 22 -6 36 0 14 -6 34 -14 43 -8 9 -14 37 -15 61 0 25 -3
45 -6 45 -6 0 -8 10 -13 92 -1 21 -4 38 -7 38 -3 0 -5 36 -5 80 0 44 -3 80 -6
80 -12 0 2 417 14 437 3 4 8 35 12 68 3 33 12 66 18 74 10 12 9 13 -3 6 -13
-8 -13 -7 -1 8 7 9 10 17 7 17 -4 0 -2 10 5 21 9 17 8 20 -2 14 -8 -5 -10 -4
-5 4 4 6 9 23 12 37 3 14 18 66 34 115 17 49 30 98 30 108 0 11 5 21 11 23 5
2 12 16 13 31 2 15 12 37 22 49 12 14 14 18 4 13 -13 -8 -13 -7 -1 8 7 9 10
17 5 17 -5 0 -4 4 1 8 6 4 16 21 24 37 7 17 22 46 32 66 11 20 19 43 19 50 0
8 10 25 23 39 13 14 22 31 19 38 -2 6 1 12 7 12 5 0 22 24 36 53 15 28 36 62
47 75 12 12 18 22 13 22 -5 0 4 14 20 30 16 17 25 30 19 30 -5 0 -4 4 1 8 6 4
16 20 23 35 7 15 17 25 22 22 6 -3 10 1 10 9 0 8 5 18 12 22 7 5 8 2 3 -7 -5
-8 -4 -11 1 -6 5 5 9 13 9 18 0 20 316 349 334 349 4 0 21 12 38 28 18 15 43
35 55 44 13 10 35 27 51 39 15 11 27 17 27 14 0 -4 17 7 38 24 21 16 50 35 65
42 15 7 27 15 27 20 0 4 17 14 38 24 48 21 98 49 116 64 8 7 23 14 33 16 10 2
19 4 21 5 1 2 5 3 10 4 4 1 23 10 42 18 96 44 177 76 214 83 10 3 24 10 32 16
8 7 17 9 20 7 3 -3 25 0 50 8 24 7 44 10 44 7 0 -3 7 0 15 7 8 6 24 13 37 15
13 3 43 8 68 14 25 5 48 7 52 5 5 -3 8 -1 8 4 0 5 10 8 23 7 12 -1 26 0 31 3
12 7 59 11 153 14 40 2 73 6 73 10 0 4 6 5 14 2 8 -3 17 0 21 6 4 7 11 7 18 2
7 -5 67 -8 134 -8z m-1997 -908 c0 -2 -8 -10 -17 -17 -16 -13 -17 -12 -4 4 13
16 21 21 21 13z"/>
<path d="M3391 5711 c-5 -4 6 -24 24 -45 19 -22 31 -44 28 -49 -4 -6 0 -8 10
-4 11 4 14 2 11 -7 -3 -8 -1 -17 5 -21 6 -3 11 -15 11 -25 0 -14 5 -18 18 -13
9 3 14 3 10 -2 -4 -4 -3 -14 3 -22 6 -7 8 -13 3 -13 -4 0 1 -7 12 -15 19 -14
11 -20 -22 -16 -6 1 -17 -6 -24 -14 -7 -8 -17 -15 -22 -15 -8 0 -67 -56 -67
-63 1 -10 -22 -56 -30 -62 -6 -3 -11 -16 -11 -27 0 -12 -7 -29 -16 -39 -22
-25 -11 -36 33 -34 36 3 40 6 75 75 37 72 52 95 66 95 4 1 16 6 28 12 11 7 34
11 50 9 32 -4 31 3 20 -137 l-6 -77 30 -6 c42 -8 56 0 57 32 0 15 3 43 7 62 4
19 8 52 8 73 0 40 13 56 31 38 6 -6 17 -11 24 -11 23 0 73 -43 73 -62 0 -10 5
-18 10 -18 6 0 9 -3 9 -7 -1 -5 0 -10 1 -13 1 -3 4 -16 5 -30 1 -14 8 -38 15
-55 7 -16 13 -33 12 -36 0 -3 17 -6 38 -7 39 -2 40 -1 36 31 -3 17 -5 32 -6
32 -2 0 -7 20 -15 60 -3 16 -12 36 -18 44 -10 12 -9 13 3 6 11 -7 10 -2 -4 20
-25 41 -62 75 -80 75 -34 0 -25 25 30 81 33 32 67 62 77 65 9 3 17 12 17 20 0
8 4 13 9 10 4 -3 16 3 26 14 18 19 17 20 -3 20 -12 0 -22 3 -22 8 0 4 -14 7
-31 6 -23 -1 -43 -14 -87 -61 -31 -33 -71 -77 -89 -99 -41 -51 -54 -38 -39 39
7 31 8 57 4 57 -5 0 -6 5 -2 12 9 14 12 78 5 79 -36 5 -74 2 -79 -6 -3 -5 -7
-32 -8 -60 -2 -66 -15 -135 -25 -135 -5 0 -16 15 -25 33 -9 17 -34 57 -54 87
-21 30 -41 65 -44 76 -9 31 -75 53 -105 35z"/>
<path d="M2990 5652 c-19 -1 -42 -6 -50 -9 -8 -3 -25 -6 -37 -7 -11 -1 -35
-13 -52 -28 -17 -16 -35 -28 -40 -28 -6 0 -13 -5 -17 -12 -5 -7 -2 -9 7 -4 8
4 5 1 -5 -8 -10 -8 -23 -17 -28 -18 -12 -4 -19 -48 -20 -113 -1 -84 3 -109 23
-141 10 -17 16 -34 12 -37 -3 -4 -1 -7 5 -7 7 0 12 -7 12 -15 0 -8 7 -15 15
-15 8 0 15 -6 15 -13 0 -27 130 -73 150 -54 10 9 11 9 6 0 -4 -8 1 -11 14 -10
11 1 20 6 20 11 0 5 3 6 7 3 3 -4 12 -2 20 5 7 6 16 8 20 5 3 -4 12 -2 20 4 7
6 13 8 13 5 0 -4 12 6 26 21 15 15 23 21 18 13 -5 -9 3 -2 18 15 53 59 72 191
38 270 -7 17 -14 33 -14 36 -3 19 -74 98 -88 99 -10 0 -18 5 -18 10 0 6 -11
10 -24 10 -13 0 -26 3 -28 8 -1 4 -19 6 -38 4z m20 -83 c0 -5 3 -8 8 -7 26 8
101 -79 87 -102 -3 -5 0 -10 7 -10 9 0 14 -19 16 -63 3 -69 -20 -128 -63 -159
-25 -19 -105 -31 -105 -16 0 4 -7 8 -16 8 -19 0 -75 51 -68 62 3 4 1 8 -4 8
-12 0 -40 62 -36 83 1 9 -2 17 -7 17 -5 0 -5 10 1 24 5 13 6 26 3 30 -3 3 -2
13 2 23 5 10 9 25 11 33 2 8 19 29 38 45 28 23 47 30 81 31 25 1 45 -2 45 -7z"/>
<path d="M4254 5523 c-12 -38 -48 -103 -56 -103 -5 0 -7 -4 -3 -9 3 -5 1 -12
-5 -16 -6 -4 -8 -10 -5 -15 3 -5 -3 -13 -12 -19 -10 -6 -15 -11 -11 -11 4 0
-4 -16 -17 -36 -14 -20 -25 -42 -25 -49 0 -7 -7 -18 -15 -25 -8 -7 -13 -16
-10 -20 3 -5 -8 -29 -25 -54 -31 -45 -31 -45 -11 -65 11 -11 22 -16 26 -13 3
4 10 0 14 -7 5 -7 21 -15 36 -16 15 -2 24 -1 21 2 -5 6 120 93 134 93 5 0 38
20 74 45 37 25 69 45 72 45 3 0 20 11 36 25 40 34 54 22 22 -20 -14 -19 -23
-39 -19 -45 3 -5 1 -10 -4 -10 -6 0 -11 -5 -11 -11 0 -6 -9 -24 -21 -40 -11
-16 -17 -29 -12 -29 4 0 3 -4 -2 -8 -16 -11 -45 -60 -45 -74 0 -7 -8 -18 -19
-25 -23 -15 -17 -63 10 -70 10 -3 17 -9 14 -13 -3 -4 1 -10 8 -13 8 -3 23 12
38 39 13 24 27 44 32 44 4 0 7 6 5 13 -2 7 7 26 20 42 19 24 25 27 32 15 6 -8
10 -11 10 -7 0 10 68 -37 114 -78 6 -6 28 -21 48 -33 20 -13 68 -54 106 -92
38 -39 72 -67 75 -63 4 3 7 -4 7 -17 0 -13 3 -21 6 -17 9 8 85 -75 97 -106 3
-9 11 -17 17 -17 5 0 10 -6 10 -14 0 -8 7 -16 15 -20 8 -3 15 -12 15 -21 0 -8
5 -15 10 -15 6 0 10 -6 10 -14 0 -8 3 -16 8 -18 10 -4 81 -114 84 -130 2 -7
11 -19 21 -26 9 -7 15 -18 11 -23 -3 -5 0 -16 6 -24 7 -8 9 -15 4 -15 -5 0 -1
-5 8 -10 9 -6 19 -24 23 -40 4 -17 11 -30 16 -30 5 0 8 -3 8 -7 -3 -20 2 -34
11 -28 6 3 7 -1 4 -10 -4 -8 -1 -22 6 -30 7 -8 9 -15 4 -15 -5 0 -4 -4 2 -8
13 -9 49 -122 45 -144 -1 -10 3 -18 9 -18 6 0 9 -4 5 -9 -3 -5 -1 -13 5 -16 6
-4 8 -16 5 -26 -4 -11 -1 -27 6 -35 11 -14 14 -28 23 -114 2 -19 5 -35 6 -35
4 0 12 -73 13 -122 1 -28 4 -50 7 -48 5 3 4 -80 -3 -132 -2 -18 -1 -33 4 -33
4 0 6 -10 3 -22 -3 -13 -7 -48 -10 -78 -2 -30 -7 -66 -10 -80 -4 -14 -8 -45
-10 -70 -2 -25 -5 -52 -7 -60 -2 -8 -7 -33 -11 -55 -4 -22 -9 -46 -12 -53 -2
-7 -4 -16 -5 -20 0 -4 -6 -16 -12 -27 -6 -11 -12 -30 -13 -42 -4 -33 -15 -66
-27 -82 -6 -7 -12 -18 -13 -25 -1 -6 -8 -24 -15 -41 -7 -16 -13 -32 -14 -35
-1 -3 -8 -18 -15 -35 -7 -16 -13 -33 -12 -37 1 -5 -2 -8 -8 -8 -6 0 -9 -3 -8
-7 2 -14 -14 -47 -36 -72 -12 -13 -14 -21 -6 -16 9 5 8 0 -4 -14 -11 -12 -21
-29 -22 -37 -1 -8 -14 -26 -28 -39 -14 -13 -26 -28 -26 -33 0 -5 -13 -26 -30
-47 -16 -21 -30 -42 -30 -48 0 -17 -188 -221 -212 -229 -15 -5 -38 15 -38 34
0 8 -14 29 -31 46 -17 18 -28 32 -23 32 5 0 -2 7 -14 16 -12 8 -20 20 -17 25
8 12 4 12 -39 -6 -32 -14 -51 -45 -26 -45 6 0 10 -6 10 -14 0 -8 7 -22 16 -30
8 -9 12 -21 8 -27 -4 -7 -3 -9 4 -5 6 3 19 -7 28 -24 10 -16 22 -30 27 -30 4
0 6 -4 2 -9 -3 -5 -1 -12 5 -16 6 -4 7 -11 4 -17 -4 -6 -3 -8 3 -5 5 4 16 -6
24 -21 8 -15 20 -31 26 -35 7 -4 13 -14 13 -22 0 -8 8 -20 19 -27 10 -7 21
-22 25 -33 4 -11 15 -30 25 -42 18 -22 19 -22 52 -4 42 22 45 32 15 64 -13 14
-21 28 -18 31 3 3 0 6 -6 6 -7 0 -12 6 -12 14 0 8 -7 17 -16 20 -8 3 -13 10
-10 15 4 5 0 11 -6 14 -9 3 -7 9 7 20 50 37 269 282 234 262 -14 -8 31 46 61
73 13 12 13 12 0 6 -8 -5 0 12 18 36 17 24 32 50 32 57 0 6 11 23 25 37 14 14
25 34 25 45 0 11 5 23 10 26 15 9 54 97 52 118 0 9 3 15 7 12 8 -4 35 47 36
70 1 6 7 24 14 40 12 25 29 86 46 157 2 9 11 30 20 48 10 18 12 29 5 25 -9 -6
-9 -2 -1 14 7 11 8 21 4 21 -4 0 -1 5 7 10 8 5 10 10 4 10 -11 0 -11 22 -2 50
18 51 25 90 17 90 -6 0 -5 8 1 19 6 12 6 22 1 26 -6 3 -6 18 1 38 9 30 11 283
3 357 -8 64 -22 155 -25 155 -1 0 -3 9 -5 20 -5 35 -14 79 -24 113 -5 18 -11
36 -12 40 -1 4 -3 12 -4 17 -2 6 -9 31 -15 58 -7 26 -16 47 -20 47 -4 0 -7 6
-7 13 -1 29 -13 71 -23 81 -5 5 -10 18 -10 28 0 10 -5 18 -12 18 -6 0 -9 3 -5
6 3 3 -3 22 -13 42 -11 19 -17 39 -14 44 3 4 0 8 -5 8 -6 0 -23 24 -37 53 -15
28 -30 54 -35 55 -5 2 -9 11 -9 20 -1 23 -55 93 -65 84 -5 -4 -5 -1 -1 6 4 7
-2 25 -13 41 -12 16 -21 34 -21 41 0 6 -4 8 -10 5 -5 -3 -10 -3 -10 2 0 4 -11
21 -25 37 -14 16 -25 33 -25 38 0 4 -7 8 -15 8 -8 0 -15 7 -15 15 0 8 -4 15
-10 15 -5 0 -10 5 -10 10 0 12 -166 180 -178 180 -4 0 -15 8 -24 18 -37 38
-55 52 -66 52 -7 0 -12 3 -12 8 0 4 -17 18 -38 32 -20 14 -43 30 -50 37 -7 7
-26 20 -42 30 -17 9 -30 22 -30 28 1 17 37 92 49 99 6 4 9 12 6 17 -4 5 -2 9
4 9 16 0 23 39 9 53 -22 21 -66 40 -76 33 -6 -3 -12 -1 -14 5 -2 6 -17 -2 -33
-18 -31 -29 -70 -53 -87 -53 -5 0 -19 -9 -31 -21 -12 -11 -47 -34 -77 -50 -66
-35 -88 -49 -114 -71 -33 -29 -30 -13 8 42 20 29 33 56 30 61 -2 5 4 21 14 36
40 58 56 88 54 99 -1 6 7 19 17 28 11 10 17 25 14 34 -4 10 -2 13 5 8 13 -8
16 3 4 19 -6 10 -56 35 -68 35 -2 0 -7 -8 -10 -17z"/>
<path d="M2431 5446 c-7 -9 -17 -14 -21 -11 -4 2 -16 -5 -26 -16 -14 -16 -15
-22 -5 -28 7 -5 12 -11 12 -15 -2 -8 69 -119 81 -127 5 -3 -13 -20 -39 -37
-26 -17 -67 -45 -91 -61 -23 -17 -46 -31 -50 -31 -11 0 -52 53 -69 89 -10 22
-49 61 -61 61 -6 0 -16 -8 -21 -17 -6 -10 -11 -14 -11 -9 0 5 -7 3 -15 -4 -12
-10 -10 -19 20 -66 19 -30 35 -59 35 -65 0 -6 5 -7 10 -4 6 4 13 -7 16 -24 4
-17 10 -28 15 -25 5 2 12 -7 15 -23 6 -22 2 -31 -23 -50 -17 -13 -54 -46 -82
-73 -28 -27 -51 -46 -51 -42 0 4 -9 -6 -20 -23 -10 -16 -45 -56 -77 -89 -32
-32 -51 -55 -43 -51 8 4 2 -5 -15 -20 -16 -14 -23 -23 -15 -19 8 5 -2 -11 -22
-35 -20 -24 -37 -46 -36 -50 3 -16 -15 -40 -26 -34 -6 3 -8 3 -4 -2 4 -4 -4
-22 -17 -40 -14 -17 -25 -36 -25 -42 0 -5 -8 -18 -17 -29 -27 -31 -40 -57 -37
-76 1 -10 -1 -18 -5 -18 -7 0 -32 -43 -36 -60 -8 -39 -17 -60 -26 -60 -6 0 -7
-5 -4 -10 4 -6 0 -21 -9 -34 -8 -13 -17 -34 -18 -47 -2 -13 -10 -34 -16 -47
-7 -12 -11 -26 -8 -31 3 -5 -1 -14 -9 -21 -8 -7 -13 -15 -10 -19 2 -4 -2 -32
-10 -62 -17 -63 -44 -220 -51 -299 -8 -86 -11 -290 -5 -290 4 0 7 -33 8 -72 1
-40 5 -89 9 -108 3 -19 6 -43 6 -52 -1 -10 2 -18 6 -18 4 0 7 -12 6 -27 -1
-16 2 -32 6 -38 4 -5 8 -17 8 -25 1 -23 7 -44 15 -57 5 -7 5 -17 2 -23 -3 -5
-1 -10 4 -10 6 0 11 -11 11 -25 0 -15 7 -40 16 -56 8 -17 13 -33 10 -36 -3 -3
4 -21 14 -41 11 -19 17 -38 15 -42 -3 -4 2 -13 10 -20 8 -7 15 -21 15 -31 0
-11 3 -19 8 -19 10 0 32 -50 32 -72 0 -10 5 -18 10 -18 6 0 10 -9 10 -20 0
-11 4 -20 9 -20 7 0 22 -35 20 -48 0 -2 8 -10 18 -18 10 -7 14 -14 8 -14 -6 0
-6 -3 0 -8 6 -4 30 -37 55 -74 24 -36 49 -64 54 -61 5 3 6 1 2 -6 -5 -7 1 -20
13 -30 12 -10 21 -22 21 -27 0 -5 21 -31 45 -57 25 -26 45 -51 45 -56 0 -4 22
-25 50 -47 27 -21 49 -44 50 -51 0 -7 10 -18 22 -24 13 -7 26 -17 30 -22 7
-12 -15 -60 -40 -85 -26 -27 -72 -90 -72 -99 0 -11 51 -53 64 -53 15 0 46 36
46 53 0 7 10 23 23 37 12 14 34 41 49 62 15 20 33 42 41 50 7 7 30 37 51 66
21 28 40 52 43 52 9 0 68 -35 75 -45 4 -5 12 -10 18 -10 6 0 14 -6 19 -13 5
-9 14 -5 32 14 l24 25 -40 35 c-22 20 -60 47 -85 62 -25 14 -56 36 -69 49 -14
12 -28 20 -33 17 -4 -3 -8 0 -8 5 0 6 -4 11 -10 11 -5 0 -19 8 -29 17 -41 37
-48 41 -62 32 -8 -5 -10 -9 -5 -9 5 0 1 -9 -9 -20 -16 -18 -16 -20 -1 -35 9
-9 16 -13 16 -9 0 4 9 -2 20 -14 12 -12 27 -22 34 -22 8 0 19 -6 25 -14 8 -10
6 -20 -11 -42 -13 -15 -16 -24 -9 -19 10 5 12 4 7 -3 -4 -7 -16 -17 -27 -22
-16 -9 -28 -1 -86 59 -91 94 -123 130 -153 171 -14 19 -33 42 -42 51 -9 10
-24 31 -32 47 -8 16 -22 34 -30 41 -9 7 -13 17 -10 22 3 5 0 9 -5 9 -6 0 -11
7 -11 15 0 8 -5 15 -11 15 -5 0 -7 5 -4 10 3 6 1 10 -4 10 -6 0 -11 6 -11 14
0 7 -6 19 -14 25 -8 7 -18 26 -21 42 -4 16 -11 29 -16 29 -5 0 -9 9 -9 21 0
11 -4 17 -10 14 -5 -3 -10 1 -10 10 0 9 -5 26 -12 38 -7 12 -12 27 -13 32 0 6
-8 27 -18 49 -9 21 -17 45 -17 52 0 8 -4 14 -8 14 -4 0 -9 10 -9 22 -1 13 -6
32 -11 43 -20 42 -43 139 -45 188 0 15 -3 27 -7 27 -6 0 -8 8 -15 100 -2 36
-7 76 -11 90 -10 37 -10 90 -1 90 5 0 5 5 1 12 -11 18 -12 151 -1 166 5 6 6
12 2 12 -4 0 -1 8 6 17 12 14 12 15 0 9 -10 -7 -12 -1 -8 30 3 22 8 46 11 54
4 8 8 35 10 60 5 42 7 59 20 120 3 14 8 35 10 47 3 12 9 30 15 41 6 11 8 22 5
25 -3 2 3 22 12 43 10 22 18 44 19 49 1 6 5 18 9 27 4 9 8 22 10 30 1 7 6 20
11 28 5 8 10 20 11 26 1 7 14 35 28 64 14 28 26 56 26 62 0 6 10 19 22 29 11
11 18 19 13 19 -4 0 -2 7 5 15 7 8 9 15 4 15 -5 0 -4 4 1 8 22 16 66 83 60 92
-3 6 -1 10 5 10 6 0 16 12 23 27 6 15 21 37 32 49 33 36 44 52 66 89 12 20 26
34 33 32 6 -2 22 15 37 37 14 23 39 52 56 66 18 13 30 27 28 30 -2 3 22 22 52
43 l55 38 20 -20 c10 -12 15 -21 11 -21 -4 0 -3 -4 2 -8 6 -4 15 -16 21 -27
11 -19 25 -22 68 -12 30 6 38 32 16 52 -11 10 -20 22 -20 28 0 5 -8 17 -17 26
-10 9 -27 34 -39 56 -17 32 -19 44 -10 60 6 11 18 21 26 23 8 2 23 11 33 20
10 9 25 17 34 18 8 2 31 18 51 36 19 18 32 28 29 22 -4 -6 4 -23 18 -38 13
-15 39 -53 57 -86 30 -54 58 -78 58 -49 0 6 6 9 13 6 21 -7 48 33 36 54 -5 11
-14 19 -19 19 -6 0 -10 5 -10 10 0 6 -5 16 -10 23 -6 7 -26 36 -44 64 -18 29
-36 50 -40 46 -4 -4 -5 -1 -1 7 3 8 -6 28 -20 44 -13 16 -22 33 -19 38 3 4 0
7 -8 6 -7 -2 -14 7 -16 20 -2 12 -10 22 -18 22 -12 0 -19 19 -15 43 1 5 -3 6
-8 3 -5 -4 -13 6 -18 20 -8 23 -10 24 -22 10z"/>
<path d="M3342 5027 c-19 -24 -41 -75 -35 -81 4 -3 2 -6 -4 -6 -6 0 -16 -13
-23 -30 -15 -37 -28 -48 -67 -55 -18 -3 -45 -10 -60 -16 -15 -6 -29 -10 -30
-10 -26 8 -64 -3 -73 -19 -6 -11 -7 -19 -3 -18 10 3 139 -131 136 -141 -2 -7
-6 -51 -18 -169 -4 -32 -2 -42 8 -38 6 3 20 9 30 12 9 4 17 10 17 14 0 8 58
26 73 22 4 -1 7 3 7 10 0 6 3 8 7 5 3 -4 13 -1 21 5 21 18 42 18 68 1 13 -8
24 -12 24 -8 0 3 7 -1 16 -9 8 -9 24 -16 35 -16 10 0 19 -5 19 -11 0 -5 5 -7
10 -4 6 3 10 1 10 -5 0 -6 4 -9 9 -5 5 3 13 0 17 -7 14 -22 21 23 12 76 -20
125 -19 136 17 175 88 97 104 116 101 118 -4 4 -38 12 -76 17 -14 3 -36 8 -50
14 -14 5 -35 8 -47 7 -14 -1 -23 4 -23 12 0 8 -4 12 -9 8 -5 -3 -15 11 -21 30
-6 19 -18 38 -26 43 -8 4 -16 19 -19 32 -3 14 -9 26 -15 28 -6 2 -8 7 -5 12 8
13 -23 20 -33 7z"/>
<path d="M3247 4303 c-4 -4 -152 -8 -330 -10 -357 -4 -330 -4 -409 -2 -31 0
-62 -2 -67 -6 -6 -3 -11 -2 -11 3 0 10 -55 8 -84 -4 -11 -4 -17 -4 -14 2 3 5
-9 9 -28 10 -38 1 -46 -12 -34 -55 4 -16 6 -32 4 -34 -3 -3 0 -24 5 -48 6 -24
12 -60 14 -79 2 -19 8 -35 13 -35 5 -1 20 -7 34 -15 14 -8 34 -15 44 -17 11
-2 47 -16 80 -32 116 -56 161 -75 174 -74 6 0 12 -3 12 -7 0 -8 38 -23 53 -21
4 1 7 -4 7 -10 0 -6 7 -9 15 -5 8 3 15 2 15 -2 0 -9 71 -42 96 -46 8 -1 24
-10 34 -19 11 -9 20 -13 20 -9 0 4 5 -1 11 -10 5 -10 9 -20 9 -24 -1 -3 7 -12
17 -20 10 -7 14 -14 10 -14 -4 0 -2 -10 5 -22 7 -13 14 -27 14 -33 1 -5 3 -12
4 -15 7 -20 22 -102 21 -125 0 -52 -13 -102 -33 -123 -13 -15 -15 -20 -5 -13
24 19 21 6 -5 -19 -12 -11 -18 -20 -14 -20 8 0 -6 -18 -64 -78 -52 -54 -151
-121 -262 -176 -68 -34 -76 -41 -69 -60 5 -11 7 -30 4 -41 -6 -32 -5 -286 1
-292 8 -8 346 -10 384 -2 17 4 34 4 37 0 4 -8 97 -7 111 1 5 3 19 4 31 3 14
-1 25 5 29 17 3 10 10 18 15 18 20 0 25 2 42 18 11 9 24 17 30 18 35 3 77 18
77 28 0 6 7 2 15 -8 8 -11 15 -15 15 -10 0 16 67 16 103 0 18 -7 40 -12 50
-10 10 1 17 -4 17 -14 0 -8 3 -13 6 -9 4 3 30 -6 58 -22 50 -27 53 -27 212
-26 88 1 166 5 172 9 7 4 12 3 12 -2 0 -4 29 -8 65 -7 36 1 65 -3 65 -8 0 -6
5 -6 13 1 6 5 31 10 55 11 66 2 67 3 67 32 0 15 -4 25 -9 22 -4 -3 -5 5 -1 17
4 13 8 62 8 111 1 88 -9 119 -39 119 -23 0 -104 54 -104 69 0 11 -3 12 -11 4
-9 -9 -15 -9 -24 0 -7 7 -28 23 -45 37 -65 50 -138 118 -133 124 4 3 -1 6 -11
6 -9 0 -14 5 -11 10 3 6 2 10 -3 10 -5 0 -15 15 -22 33 -7 17 -19 37 -27 43
-7 7 -16 21 -18 33 -2 12 -7 26 -11 33 -16 26 -22 131 -11 198 13 77 59 165
92 175 50 14 131 36 145 40 39 8 151 50 207 76 34 16 65 29 69 29 4 0 16 7 26
17 10 9 18 11 18 5 0 -7 9 -5 20 6 12 9 24 16 28 15 4 -1 22 10 41 25 19 14
31 19 26 11 -5 -8 4 -2 20 14 15 15 33 27 41 27 7 0 14 4 16 9 4 12 137 111
149 111 5 0 9 4 9 8 0 5 18 21 40 38 59 44 58 59 -5 44 -5 -1 -12 -1 -15 0
-15 8 -150 6 -150 -2 0 -5 -7 -5 -17 0 -23 11 -384 9 -402 -3 -9 -5 -12 -4 -8
2 4 7 -32 9 -106 8 -118 -3 -160 2 -152 16 9 14 -34 32 -49 20 -7 -6 -16 -8
-19 -5 -3 4 -33 6 -67 5 -33 -1 -68 -1 -77 -1 -55 0 -113 0 -149 -2 -22 -1
-45 2 -51 5 -7 4 -14 3 -17 -2 -7 -10 -25 -9 -42 2 -6 3 -14 3 -18 0 -10 -11
-97 -12 -90 -2 6 11 0 12 -9 2z m597 -104 c7 11 26 6 26 -7 0 -4 -20 -30 -45
-57 -25 -28 -45 -54 -45 -59 0 -4 -7 -6 -14 -3 -9 4 -13 1 -10 -6 3 -8 -6 -13
-23 -15 -32 -2 -98 -35 -98 -48 -1 -5 -6 -19 -13 -30 -6 -12 -9 -24 -5 -27 3
-4 1 -13 -5 -20 -9 -10 -8 -18 2 -32 13 -18 16 -18 62 -3 39 12 54 23 71 53
11 21 19 48 17 61 -3 17 7 35 37 66 22 24 55 58 72 76 25 27 32 30 39 17 5 -9
5 -20 -1 -27 -51 -62 -60 -80 -65 -119 -10 -77 -15 -92 -41 -119 -14 -14 -22
-30 -18 -35 5 -4 3 -5 -3 -2 -6 4 -19 -2 -28 -12 -18 -20 -61 -36 -84 -32 -16
3 -44 -18 -37 -29 2 -4 0 -22 -6 -41 -5 -19 -12 -42 -14 -53 -2 -10 -9 -24
-15 -30 -5 -7 -7 -16 -3 -19 3 -4 -2 -9 -11 -13 -26 -10 -19 -29 23 -63 27
-23 39 -39 39 -59 0 -63 -38 -81 -79 -37 -13 13 -29 25 -36 25 -6 0 -13 6 -16
13 -3 7 -30 -13 -67 -52 -35 -35 -57 -60 -49 -56 12 8 12 6 0 -8 -7 -9 -17
-14 -22 -11 -5 3 -8 0 -7 -8 2 -7 -2 -12 -8 -11 -7 1 -15 -9 -18 -22 -4 -14
-10 -25 -15 -25 -4 0 -22 -13 -38 -29 -79 -75 -124 -63 -56 14 17 19 29 35 26
35 -3 0 8 15 23 33 50 57 89 108 89 117 0 4 13 20 28 34 34 32 42 63 19 71 -9
3 -35 21 -57 41 l-39 36 -21 -25 c-11 -14 -31 -39 -44 -56 -13 -17 -29 -31
-37 -31 -8 0 -13 -4 -11 -8 3 -12 -69 -93 -76 -86 -3 4 -15 -8 -25 -25 -19
-32 -92 -80 -92 -61 0 18 34 85 62 121 16 20 28 42 28 48 0 7 7 14 15 18 9 3
22 18 30 33 8 16 35 50 61 76 l46 48 -45 42 c-25 23 -43 45 -39 50 4 4 2 4 -5
0 -6 -3 -14 -2 -18 4 -11 18 -36 11 -57 -15 -22 -29 -40 -32 -58 -10 -7 9 -19
14 -26 11 -8 -3 -11 0 -7 9 3 10 -5 19 -23 25 -16 6 -32 16 -35 22 -7 12 13
50 40 79 9 9 23 27 31 39 8 12 22 30 31 39 9 9 21 26 28 38 9 19 15 20 43 12
17 -5 34 -7 36 -4 3 3 11 0 18 -6 11 -9 39 -15 88 -18 16 -1 17 -3 5 -18 -12
-14 -12 -16 1 -9 8 4 -5 -11 -30 -33 -36 -33 -41 -41 -27 -47 9 -3 17 -13 17
-21 0 -8 4 -12 8 -9 13 8 63 -44 56 -56 -4 -6 -3 -8 3 -5 5 4 19 -3 31 -13 27
-25 30 -25 75 5 20 14 37 23 37 19 0 -4 9 1 20 11 11 10 20 14 20 10 0 -5 5
-4 11 2 6 6 18 9 25 6 9 -3 15 3 16 18 2 43 3 48 10 54 4 4 4 13 1 21 -3 8 -1
14 5 14 5 0 13 15 16 33 3 18 16 41 27 51 25 21 86 49 109 51 8 0 21 4 29 9
11 7 12 6 6 -5 -11 -17 20 5 49 36 10 11 22 19 27 18 5 -2 9 5 9 15 0 13 2 14
9 3 6 -9 11 -10 15 -2z m-1344 -113 c0 -3 -4 -8 -10 -11 -5 -3 -10 -1 -10 4 0
6 5 11 10 11 6 0 10 -2 10 -4z"/>
<path d="M3528 3794 c-3 -3 -21 -7 -39 -9 -31 -4 -87 -45 -61 -45 7 0 12 -7
12 -17 0 -9 3 -13 7 -10 3 4 17 -5 30 -19 13 -15 25 -25 27 -23 13 20 29 70
31 97 3 33 2 36 -7 26z"/>
<path d="M3343 2548 c-11 -18 -31 -55 -59 -109 -31 -61 -43 -70 -101 -72 -26
-1 -50 -5 -53 -9 -3 -3 -21 -8 -40 -10 -19 -3 -35 -10 -35 -16 0 -7 26 -41 58
-76 31 -36 57 -70 57 -76 0 -6 5 -8 12 -4 7 4 8 3 4 -5 -4 -6 -9 -35 -12 -64
-2 -28 -6 -74 -8 -100 l-5 -48 65 36 c108 61 134 62 230 13 71 -36 111 -48
100 -30 -3 5 -7 39 -10 78 -3 38 -8 81 -11 95 -3 18 1 32 15 44 11 10 20 28
20 39 0 17 2 18 10 6 9 -13 14 -7 11 12 0 5 5 7 12 5 6 -1 11 4 10 10 -2 7 0
12 5 12 4 -1 14 -1 22 0 13 1 13 2 0 11 -13 8 -13 10 1 10 22 0 34 31 17 42
-13 8 -49 12 -80 10 -10 -1 -18 3 -18 9 0 5 -4 8 -8 5 -5 -3 -27 0 -50 6 -37
9 -65 35 -67 60 0 3 -3 9 -7 13 -4 4 -18 31 -33 61 -27 55 -38 64 -52 42z"/>
<path d="M2610 2013 c0 -5 -19 -8 -41 -8 -25 0 -51 -6 -64 -17 -12 -9 -28 -18
-36 -20 -18 -4 -82 -85 -98 -124 -26 -66 -29 -142 -6 -188 8 -16 15 -35 15
-41 0 -7 8 -19 17 -26 15 -12 16 -12 8 1 -8 13 -7 13 8 1 10 -8 15 -16 12 -19
-3 -3 18 -17 47 -30 71 -34 167 -38 225 -11 45 22 103 80 103 104 0 8 4 15 8
15 4 0 16 14 26 31 11 18 13 29 6 24 -9 -6 -9 -3 0 15 22 42 5 170 -22 170 -5
0 -8 5 -8 10 0 28 -100 97 -150 105 -8 1 -23 6 -32 10 -10 4 -18 3 -18 -2z
m53 -77 c3 3 20 -4 38 -15 19 -12 31 -21 27 -21 -4 0 0 -9 9 -20 9 -10 18 -27
19 -37 8 -51 7 -80 -4 -99 -6 -12 -9 -24 -6 -27 11 -10 -57 -91 -97 -115 -47
-28 -97 -35 -108 -14 -4 7 -11 13 -14 13 -19 -3 -26 1 -53 24 -16 14 -26 25
-22 25 4 0 1 18 -7 39 -7 22 -11 42 -7 45 3 4 7 16 9 28 2 12 8 27 14 34 7 8
7 13 -1 16 -5 1 4 19 20 38 16 19 30 38 30 41 0 3 18 15 40 28 22 12 40 19 40
15 0 -5 5 -3 11 3 8 8 20 8 34 3 13 -5 25 -7 28 -4z"/>
<path d="M4259 1997 c-14 -12 -24 -28 -23 -34 1 -7 2 -17 3 -23 0 -5 7 -9 14
-7 7 1 11 -6 9 -16 -2 -9 1 -16 7 -15 5 2 9 1 8 -2 0 -3 11 -18 26 -34 15 -16
27 -35 27 -42 0 -8 5 -14 10 -14 6 0 10 -7 10 -15 0 -9 6 -18 14 -21 8 -3 20
-19 26 -35 7 -16 15 -29 19 -29 4 0 15 -16 25 -35 11 -19 23 -35 28 -35 4 0 8
-6 8 -14 0 -8 7 -17 16 -20 8 -3 12 -11 8 -18 -5 -8 0 -9 17 -4 13 4 30 8 37
8 6 1 12 5 12 9 0 5 16 16 35 25 19 9 32 20 29 25 -5 8 19 13 30 7 7 -4 65 76
66 90 0 6 5 11 11 10 24 -6 36 124 13 143 -8 6 -14 17 -14 24 0 6 -11 18 -25
25 -13 7 -22 17 -19 21 3 5 -2 6 -10 3 -8 -3 -21 -2 -28 2 -20 13 -80 11 -110
-3 -16 -8 -28 -11 -28 -8 0 4 -13 -3 -29 -14 -15 -11 -31 -18 -34 -15 -3 3
-13 -6 -22 -20 -15 -23 -45 -27 -45 -5 0 4 -11 20 -25 35 -14 15 -25 31 -25
36 0 11 -22 32 -35 35 -6 1 -22 -8 -36 -20z m383 -109 c10 -10 15 -18 12 -18
-3 0 2 -7 11 -16 9 -10 13 -24 10 -33 -4 -9 -8 -27 -10 -40 -3 -27 -53 -70
-104 -89 -19 -7 -32 -9 -28 -6 6 6 -6 24 -35 52 -10 9 -18 20 -18 25 0 5 -11
23 -24 40 -18 23 -22 37 -16 47 5 8 10 11 10 6 0 -5 8 -2 18 7 51 46 140 59
174 25z"/>
<path d="M4018 1922 c-23 -12 -51 -28 -61 -35 -24 -15 -48 -62 -39 -72 4 -5 2
-5 -5 -2 -6 4 -14 1 -16 -5 -5 -12 -11 16 -8 35 0 4 -4 7 -10 7 -5 0 -8 4 -5
8 6 10 -19 9 -51 -2 -16 -5 -23 -15 -23 -32 0 -14 4 -23 9 -19 6 3 8 -3 6 -15
-2 -11 0 -22 4 -25 5 -2 12 -21 15 -40 4 -19 12 -35 18 -35 6 0 8 -11 6 -25
-3 -14 -2 -25 2 -25 4 0 18 -33 30 -72 12 -40 24 -80 28 -88 3 -8 6 -21 8 -28
1 -8 6 -21 10 -30 4 -9 8 -19 9 -22 1 -3 9 -22 19 -43 9 -21 14 -42 11 -47 -3
-5 -1 -11 5 -15 6 -4 8 -11 5 -16 -4 -5 -1 -9 4 -9 6 0 10 -3 10 -7 -3 -17 2
-39 10 -52 7 -11 14 -11 40 2 19 10 29 11 24 4 -4 -7 0 -6 10 2 13 10 14 18 6
32 -5 10 -7 19 -4 19 3 0 -1 13 -10 30 -8 16 -15 32 -15 35 0 3 0 6 -1 8 0 1
-2 9 -4 17 -7 37 -10 45 -17 50 -3 3 -8 14 -10 25 -2 14 2 19 12 16 34 -9 124
-8 156 1 35 9 104 62 104 79 0 6 10 23 21 39 14 18 20 37 16 50 -3 12 -1 33 4
47 6 17 6 30 -1 38 -6 7 -8 20 -4 29 3 9 2 16 -3 16 -6 0 -15 17 -21 38 -11
33 -78 122 -93 122 -4 0 -24 7 -45 16 -56 24 -105 22 -156 -4z m124 -72 c15
-7 25 -17 22 -21 -3 -5 1 -6 9 -3 9 3 24 -15 44 -53 26 -49 31 -68 29 -125 -1
-53 -5 -72 -23 -92 -13 -14 -32 -26 -42 -26 -11 0 -21 -5 -23 -12 -6 -17 -81
-13 -122 6 -20 9 -36 19 -36 22 0 3 6 2 13 -1 6 -4 1 3 -13 14 -14 11 -21 21
-16 21 5 0 3 7 -4 15 -6 8 -9 19 -5 25 3 5 2 10 -3 10 -9 0 -27 47 -24 62 1 4
-3 19 -8 33 -6 15 -6 24 -1 21 5 -4 12 11 16 32 5 31 13 41 52 64 50 28 88 30
135 8z"/>
<path d="M2919 1888 c-1 -10 -2 -21 -3 -25 -11 -44 -17 -74 -20 -105 -2 -21
-7 -41 -9 -45 -3 -4 -8 -26 -11 -48 -4 -22 -11 -44 -16 -49 -5 -5 -5 -18 0
-31 5 -14 4 -27 -3 -34 -6 -6 -12 -30 -14 -53 -1 -24 -5 -54 -8 -68 -6 -24 -4
-25 39 -27 40 -1 45 1 52 25 4 15 8 41 8 57 1 17 4 32 8 35 4 3 8 20 10 38 1
18 6 32 11 32 5 0 4 7 -3 15 -8 10 -9 15 -2 15 6 0 9 7 6 15 -4 8 -2 15 3 15
4 0 9 26 11 57 1 31 6 61 11 67 5 6 11 16 13 21 1 6 8 8 13 7 6 -2 26 -6 45
-8 19 -2 63 -9 97 -15 l62 -12 -5 -51 c-3 -28 -8 -62 -11 -76 -3 -14 -7 -29
-8 -35 0 -5 -4 -21 -8 -35 -4 -14 -9 -38 -11 -55 -2 -16 -5 -30 -6 -30 -1 0
-3 -18 -6 -39 -2 -22 -8 -44 -13 -49 -21 -21 0 -43 44 -46 47 -2 51 4 62 94 2
21 6 42 9 46 2 4 6 24 9 45 3 22 8 45 10 52 2 6 0 12 -5 12 -4 0 -2 12 5 28 7
15 16 51 19 81 3 30 10 59 15 65 5 6 5 21 0 34 -7 18 -14 22 -29 17 -11 -3
-20 -3 -20 2 0 8 -35 14 -107 16 -23 1 -39 5 -37 9 4 7 -46 12 -93 11 -7 -1
-13 2 -13 6 0 4 -14 8 -31 9 -44 3 -53 6 -61 17 -5 6 -8 3 -9 -7z"/>
<path d="M3494 1823 c-10 -7 -24 -11 -31 -9 -7 3 -22 -7 -33 -22 -12 -15 -19
-20 -15 -12 4 8 -3 4 -14 -10 -11 -14 -21 -28 -21 -32 0 -4 -8 -17 -17 -27
-17 -20 -18 -25 -26 -96 -4 -34 1 -82 15 -145 2 -8 13 -25 26 -38 12 -12 22
-27 22 -32 0 -6 6 -10 13 -10 6 0 23 -9 37 -20 14 -11 35 -20 48 -20 12 0 22
-4 22 -9 0 -11 98 -6 130 7 14 5 28 8 33 5 4 -2 7 1 7 6 0 6 6 11 13 11 17 0
80 68 97 105 26 57 30 93 17 155 -5 25 -9 51 -10 58 0 6 -4 12 -9 12 -5 0 -6
5 -3 10 3 6 -10 27 -29 48 -20 20 -36 41 -36 45 0 5 -4 6 -9 2 -5 -3 -15 1
-23 8 -16 16 -21 17 -115 20 -47 2 -77 -1 -89 -10z m178 -95 c21 -22 42 -57
48 -77 14 -50 13 -114 -2 -130 -11 -11 -10 -12 2 -5 11 6 10 1 -4 -21 -19 -31
-76 -91 -76 -80 0 3 -13 -1 -30 -10 -16 -9 -30 -12 -30 -7 0 5 -11 8 -25 7
-14 -2 -25 1 -25 5 0 5 -8 11 -18 14 -21 7 -65 63 -65 83 0 7 -3 13 -7 13 -4
0 -7 14 -8 30 -1 17 -2 36 -3 43 -3 37 13 90 41 131 17 25 34 46 36 46 3 0 2
-6 -2 -12 -6 -10 -5 -10 7 -1 8 6 25 13 39 16 51 9 85 -3 122 -45z"/>
<path d="M4394 6083 c-40 -43 -55 -82 -47 -122 4 -20 8 -40 8 -46 1 -5 6 -9
13 -7 7 1 12 -5 12 -15 0 -9 3 -13 7 -10 3 4 11 2 18 -3 19 -15 82 -22 90 -10
10 16 -5 28 -40 32 -44 5 -72 32 -70 71 1 17 6 31 11 30 5 -1 41 -13 79 -27
l70 -24 11 32 c8 23 8 35 0 45 -6 8 -10 16 -8 18 8 12 -1 33 -18 38 -11 4 -18
9 -16 13 2 4 -18 8 -46 9 -42 1 -54 -2 -74 -24z m112 -13 c9 -2 10 -48 2 -63
-9 -18 -12 -19 -22 -5 -6 8 -19 14 -28 12 -10 -1 -20 2 -24 7 -3 5 -10 7 -15
4 -14 -9 -11 29 3 43 10 10 53 11 84 2z"/>
<path d="M4663 6028 c-12 -6 -25 -24 -28 -39 -4 -16 -11 -29 -16 -29 -5 0 -9
-6 -10 -12 0 -7 -11 -35 -24 -63 -16 -34 -20 -54 -14 -62 8 -9 15 -8 28 5 10
9 16 19 15 21 -8 10 19 41 36 41 18 0 25 -10 21 -32 0 -5 3 -8 8 -8 6 0 8 -9
6 -20 -2 -11 1 -20 7 -20 7 0 7 -4 0 -12 -12 -16 -1 -43 18 -43 8 0 17 14 21
33 3 17 3 32 -2 32 -5 0 -6 6 -3 14 6 16 -12 56 -30 68 -8 5 -7 8 2 8 6 0 13
-1 15 -2 1 -2 18 7 38 20 20 12 38 20 40 18 2 -2 11 3 19 12 13 14 12 15 -2 9
-9 -3 -18 -1 -20 4 -4 12 -52 -6 -82 -30 -17 -14 -18 -14 -12 -1 7 13 6 13 -6
0 -12 -14 -38 -25 -38 -16 0 2 7 21 16 42 14 34 26 75 21 73 -1 0 -12 -5 -24
-11z"/>
<path d="M2336 6012 c-4 -7 -12 -10 -17 -7 -5 4 -9 1 -9 -5 0 -7 -7 -10 -15
-6 -21 7 -63 -52 -63 -89 0 -47 35 -109 71 -125 41 -18 55 -18 95 3 17 10 32
14 32 10 0 -16 24 18 27 38 3 17 1 19 -10 10 -8 -6 -17 -8 -20 -4 -4 3 -7 1
-7 -6 0 -7 -4 -10 -9 -7 -5 4 -11 1 -13 -5 -7 -20 -69 -18 -90 3 -19 19 -19
21 -2 39 9 10 21 16 25 13 5 -3 9 0 9 7 0 7 3 10 6 6 10 -10 62 21 74 43 10
19 6 25 -15 20 -5 -1 -7 2 -2 6 9 9 -21 44 -39 44 -7 0 -14 5 -16 12 -3 9 -6
9 -12 0z m38 -57 c2 -7 0 -18 -5 -26 -5 -8 -9 -10 -9 -6 0 5 -13 -1 -30 -13
-43 -31 -66 -33 -65 -6 1 11 7 31 14 44 10 18 19 22 51 20 22 -1 41 -7 44 -13z"/>
<path d="M2135 5912 c-17 -9 -32 -20 -35 -24 -4 -4 -27 -18 -52 -31 -35 -18
-44 -27 -37 -38 7 -12 13 -11 40 4 35 19 35 19 64 -34 7 -14 21 -31 30 -39 13
-10 13 -15 3 -21 -10 -7 -10 -9 0 -9 7 0 17 -12 22 -26 9 -22 13 -24 25 -14
22 18 19 32 -20 92 -19 29 -38 61 -41 71 -6 20 23 60 37 51 11 -6 11 7 1 23
-5 9 -15 7 -37 -5z"/>
<path d="M4830 5861 c-50 -46 -60 -89 -32 -141 19 -35 84 -76 102 -65 15 9 12
32 -6 39 -10 4 -13 2 -9 -7 4 -6 -9 4 -28 25 -20 20 -34 42 -33 50 7 31 28 72
44 84 23 17 93 11 104 -10 11 -19 38 -22 38 -3 0 19 -12 31 -45 46 -58 27 -90
23 -135 -18z"/>
<path d="M1910 5775 c-33 -25 -70 -105 -49 -105 6 0 9 -6 7 -12 -3 -19 12 -58
23 -58 5 0 9 -6 9 -14 0 -13 25 -26 65 -32 31 -4 80 14 105 41 34 37 16 49
-33 22 -48 -27 -85 -28 -99 -3 -5 9 -13 14 -17 12 -4 -3 -8 0 -9 7 -1 7 -5 28
-8 47 -4 27 -1 40 16 58 11 12 27 22 34 22 20 0 27 27 10 34 -9 3 -17 6 -18 6
-1 0 -17 -11 -36 -25z"/>
<path d="M5070 5790 c-15 -10 -10 -20 12 -24 21 -3 58 -44 58 -65 0 -27 -17
-35 -36 -17 -8 9 -21 16 -27 17 -7 0 -27 2 -45 5 -25 3 -37 -2 -54 -21 -28
-33 -33 -64 -11 -81 10 -7 14 -14 8 -14 -19 -2 30 -19 57 -19 19 -1 26 -5 22
-14 -3 -8 2 -19 10 -26 12 -10 19 -5 41 33 15 25 31 46 36 46 5 0 9 6 9 14 0
7 7 19 15 26 14 11 17 45 8 81 -3 14 -70 69 -84 69 -2 0 -11 -4 -19 -10z m15
-133 c7 -9 15 -14 18 -11 3 3 3 -3 0 -15 -3 -12 -10 -21 -15 -21 -5 0 -7 -4
-4 -8 10 -16 -57 -12 -75 4 -25 22 -24 39 3 58 26 18 56 15 73 -7z"/>
<path d="M5256 5625 c-9 -14 -21 -23 -26 -20 -6 4 -10 0 -10 -8 0 -8 -11 -27
-25 -43 -14 -16 -25 -33 -25 -38 0 -5 -3 -6 -7 -3 -11 11 -32 -27 -22 -39 13
-16 47 -6 54 15 7 22 41 42 60 35 9 -4 14 -13 10 -21 -3 -10 -1 -13 8 -10 7 3
19 -4 27 -16 9 -15 10 -22 1 -25 -6 -2 -9 -8 -5 -13 3 -5 -2 -9 -11 -9 -9 0
-14 -4 -11 -9 3 -5 -1 -11 -9 -15 -25 -9 -18 -36 10 -36 15 0 25 6 25 14 0 8
9 17 19 21 11 3 22 14 26 24 3 9 23 35 44 57 27 27 37 44 32 53 -12 18 -45 6
-61 -23 -15 -28 -26 -26 -73 16 l-34 31 30 28 c25 24 28 31 17 44 -17 21 -25
19 -44 -10z"/>
<path d="M1692 5607 c-12 -13 -19 -27 -15 -32 5 -4 2 -5 -5 -1 -20 12 -27 -24
-8 -42 10 -9 16 -12 14 -6 -2 7 7 25 19 42 22 30 23 30 54 15 l31 -15 -28 -29
c-15 -16 -24 -29 -18 -29 5 0 1 -5 -9 -11 -11 -7 -16 -20 -15 -40 1 -16 5 -29
8 -29 4 0 12 -11 19 -24 9 -16 21 -23 35 -22 26 3 86 34 85 44 -4 22 4 34 28
43 22 8 24 12 13 19 -8 6 -11 10 -7 10 4 0 -7 14 -25 32 -18 18 -32 36 -30 40
1 4 -2 8 -8 8 -5 0 -20 11 -34 25 -32 32 -75 33 -104 2z m146 -117 c1 -32 -21
-60 -49 -60 -45 0 -53 47 -13 87 25 24 26 25 43 7 10 -11 18 -26 19 -34z"/>
<path d="M1558 5478 c-27 -22 -26 -40 9 -107 18 -36 33 -70 33 -77 0 -12 -79
22 -91 39 -3 5 -9 8 -13 8 -3 -1 -7 -1 -8 0 -20 6 -46 7 -59 4 -16 -5 -22 -35
-7 -35 4 0 7 -3 6 -8 -2 -4 22 -33 52 -65 30 -32 57 -64 60 -72 4 -11 8 -11
25 1 19 14 19 16 3 25 -10 6 -18 17 -18 24 0 8 -7 15 -17 15 -9 0 -14 3 -10 6
3 3 -3 15 -14 27 -10 11 -19 24 -19 29 0 14 27 9 40 -7 7 -8 19 -15 27 -15 8
0 12 -4 9 -8 -3 -5 0 -9 7 -10 21 -2 42 -7 54 -15 19 -12 32 22 19 49 -6 13
-15 24 -19 24 -5 0 -5 5 -2 10 3 6 2 10 -4 10 -6 0 -8 7 -5 15 4 8 1 15 -7 15
-7 0 -10 3 -6 6 3 4 0 13 -8 21 -8 8 -15 20 -15 26 0 8 3 8 8 2 4 -5 23 -19
42 -29 19 -10 42 -28 51 -39 20 -25 46 -30 53 -11 3 8 2 14 -2 14 -7 0 -45 32
-117 102 -35 32 -43 36 -57 26z"/>
<path d="M5500 5439 c0 -24 -136 -102 -162 -94 -30 10 -93 -65 -67 -81 6 -3
19 2 30 12 23 21 50 27 43 10 -3 -7 12 -20 32 -29 24 -12 34 -22 30 -32 -3 -9
0 -15 8 -15 23 0 27 -29 6 -40 -20 -11 -27 -44 -12 -54 11 -6 79 59 74 72 -4
14 79 103 90 96 4 -3 5 3 1 12 -4 11 -2 15 4 11 10 -6 25 15 27 38 1 10 -50
65 -87 94 -14 11 -17 11 -17 0z m35 -59 c-3 -4 0 -10 7 -12 24 -8 16 -40 -15
-58 -18 -11 -40 -33 -50 -50 -19 -31 -47 -41 -47 -15 0 8 -3 15 -7 15 -5 0
-16 11 -25 24 -17 24 -17 24 24 46 24 12 55 33 71 46 26 22 55 25 42 4z"/>
<path d="M5646 5234 c-14 -15 -26 -24 -26 -22 0 3 -17 -10 -37 -28 -20 -19
-42 -34 -47 -34 -6 0 -26 -16 -45 -35 -19 -19 -39 -35 -45 -35 -7 0 -12 -9
-13 -21 -2 -18 2 -20 25 -14 15 3 36 14 47 24 26 23 46 35 43 24 -1 -4 1 -22
4 -38 5 -22 17 -36 45 -50 21 -10 45 -18 53 -16 36 5 99 42 105 61 3 11 10 20
14 20 14 0 12 78 -3 93 -8 8 -13 17 -11 21 3 3 2 4 -2 1 -3 -3 -18 5 -31 17
-14 13 -22 17 -17 9 5 -10 4 -12 -4 -7 -6 4 -11 13 -10 19 5 44 -8 47 -45 11z
m76 -71 c21 -18 17 -75 -6 -98 -9 -9 -16 -14 -16 -10 0 4 -12 -3 -26 -14 -22
-17 -30 -19 -42 -9 -8 7 -17 12 -18 11 -14 -9 -30 13 -32 42 -2 28 4 41 34 70
38 37 69 40 106 8z"/>
<path d="M1243 5124 c-12 -13 -20 -24 -16 -24 3 0 -1 -7 -8 -16 -20 -24 -20
-79 -1 -102 16 -18 25 -19 62 -11 8 2 15 -3 15 -11 0 -8 3 -17 6 -20 3 -3 14
-20 24 -39 15 -31 18 -32 33 -18 14 15 14 20 1 44 -8 15 -17 30 -21 33 -12 9
11 78 25 76 7 -1 26 -12 41 -24 30 -23 46 -21 46 4 0 20 -23 43 -65 65 -18 10
-45 29 -60 43 -34 31 -53 31 -82 0z m72 -44 c16 -17 16 -24 5 -44 -16 -31 -58
-43 -79 -22 -13 14 -13 19 2 51 19 40 45 45 72 15z"/>
<path d="M5835 5012 c-10 -10 -5 -22 8 -22 16 0 42 -48 38 -70 -7 -35 -22 -39
-50 -12 -16 15 -27 30 -25 33 1 3 -15 10 -37 16 -30 8 -41 7 -50 -3 -6 -8 -15
-12 -19 -9 -4 3 -14 -3 -21 -12 -12 -14 -12 -16 1 -8 13 7 13 6 2 -7 -8 -10
-9 -18 -3 -22 6 -4 8 -12 6 -19 -5 -15 23 -50 48 -60 10 -4 17 -17 17 -31 l0
-25 48 33 c107 72 119 83 117 120 -1 54 -57 121 -80 98z m-30 -116 c31 -36 24
-50 -26 -54 -46 -3 -77 22 -57 45 6 7 7 13 2 13 -5 0 -1 7 9 14 25 19 44 14
72 -18z"/>
<path d="M1129 4910 c-7 -5 -17 -6 -22 -3 -4 3 -11 -4 -14 -16 -3 -11 -10 -18
-16 -14 -5 3 -7 1 -3 -5 3 -6 2 -13 -4 -17 -12 -7 -10 -65 2 -65 9 0 32 50 30
62 -3 11 45 21 64 14 15 -6 15 -8 1 -30 -48 -73 1 -159 81 -139 12 3 22 13 22
22 0 9 7 24 15 34 7 11 11 25 9 31 -3 7 2 19 11 26 15 12 14 16 -10 36 -15 13
-33 20 -41 17 -8 -3 -14 0 -14 6 0 6 -6 11 -14 11 -8 0 -16 4 -18 10 -5 15
-63 29 -79 20z m101 -81 c0 -5 3 -8 8 -6 4 1 7 0 8 -3 0 -3 5 -14 11 -25 22
-40 -34 -78 -67 -45 -18 18 -18 21 -3 59 10 26 20 38 29 34 8 -3 14 -9 14 -14z"/>
<path d="M6090 4770 c-12 -7 -12 -12 5 -29 10 -12 15 -24 12 -28 -4 -3 -2 -12
4 -19 8 -10 0 -18 -38 -35 -26 -12 -82 -38 -123 -58 -41 -20 -78 -35 -82 -34
-4 2 -4 -7 1 -20 5 -12 10 -21 12 -20 45 18 70 29 99 42 19 8 37 16 40 16 3 1
29 13 58 29 30 15 55 26 57 24 2 -2 14 -22 28 -46 21 -37 26 -41 37 -27 8 10
9 15 1 15 -6 0 -10 3 -9 8 3 12 -33 112 -41 112 -10 0 -31 61 -25 71 7 12 -17
11 -36 -1z"/>
<path d="M1003 4713 c-25 -10 -14 -40 16 -46 51 -11 50 -39 -5 -115 -1 -2 -13
3 -26 11 -12 7 -30 13 -38 13 -18 -1 -27 -46 -9 -46 13 0 91 -33 119 -51 30
-18 62 -29 71 -23 16 10 9 36 -11 41 -11 3 -20 9 -20 14 0 5 -3 8 -7 8 -25 -4
-31 3 -28 32 3 17 9 36 14 43 5 6 10 16 11 21 1 6 4 12 7 15 4 3 3 -1 -1 -7
-4 -7 -2 -13 3 -13 6 0 11 6 11 13 0 9 2 9 9 -1 4 -7 14 -14 22 -15 8 -2 20
-6 27 -11 7 -4 19 -2 28 4 18 16 1 40 -27 40 -11 0 -19 7 -19 16 0 8 -5 12
-11 9 -5 -4 -20 1 -31 12 -12 10 -18 12 -14 6 5 -9 2 -11 -8 -7 -9 3 -16 10
-16 15 0 5 -9 9 -20 9 -11 0 -20 5 -20 10 0 11 -7 12 -27 3z"/>
<path d="M6114 4501 c-5 -5 -18 -11 -29 -13 -11 -1 -23 -7 -27 -13 -5 -6 -8
-4 -8 5 0 10 -7 7 -20 -10 -11 -14 -20 -19 -20 -12 0 10 -5 9 -22 -2 -22 -14
-106 -41 -119 -38 -4 1 -15 -8 -25 -19 -15 -17 -16 -22 -4 -29 8 -5 22 -5 32
1 10 5 18 8 18 5 0 -3 12 1 27 9 29 15 49 10 35 -8 -19 -27 17 -104 55 -113
45 -12 77 -12 98 0 11 6 23 10 27 11 10 0 51 45 41 45 -4 0 -2 5 5 12 7 7 12
19 12 28 -1 24 -36 91 -44 83 -4 -4 -11 -1 -16 7 -6 9 -3 18 7 25 13 9 13 13
1 23 -9 7 -18 8 -24 3z m14 -77 c5 3 12 -9 15 -27 4 -31 -13 -79 -33 -92 -21
-13 -86 -13 -104 0 -34 25 -25 115 11 115 10 1 29 7 43 15 22 12 27 11 42 -2
9 -8 21 -12 26 -9z"/>
<path d="M885 4444 c-13 -13 -14 -19 -4 -25 7 -4 16 -6 20 -3 4 2 10 0 14 -6
4 -6 11 -8 16 -5 5 4 9 1 9 -5 0 -7 6 -10 14 -7 9 4 18 -4 24 -22 8 -21 6 -33
-8 -50 -14 -20 -22 -22 -51 -16 -19 4 -42 14 -51 23 -10 8 -19 13 -19 11 -8
-27 -5 -59 4 -61 7 0 17 -2 22 -2 6 -1 16 -5 23 -9 6 -5 16 -6 21 -3 5 4 11 2
13 -4 2 -6 14 -6 33 -1 22 7 25 10 10 11 -19 1 -19 2 3 12 12 6 23 18 24 27 3
32 4 36 12 49 8 14 46 7 57 -10 6 -9 39 17 39 31 0 3 -21 13 -47 20 -27 8 -60
20 -75 27 -15 8 -35 15 -45 17 -10 1 -23 6 -30 10 -6 4 -19 0 -28 -9z"/>
<path d="M6200 4243 c-8 -4 -35 -22 -59 -42 -25 -20 -41 -29 -37 -21 4 8 -10
-3 -31 -25 -39 -40 -40 -41 -74 -27 -19 8 -40 19 -48 25 -20 17 -41 17 -41 0
0 -18 37 -53 57 -53 7 0 13 -4 13 -8 0 -5 6 -9 13 -9 19 -1 81 -14 85 -18 2
-2 17 1 33 5 18 6 27 5 23 -1 -3 -5 7 -9 23 -8 15 0 45 -2 66 -5 46 -8 57 -2
50 23 -4 16 -12 19 -49 15 -23 -2 -46 0 -49 5 -3 5 -23 8 -44 6 -50 -4 -46 17
8 44 40 21 84 64 87 86 2 16 -2 17 -26 8z"/>
<path d="M865 4200 c-17 -4 -43 -15 -58 -24 -24 -16 -27 -24 -25 -67 2 -42 8
-55 36 -82 18 -18 35 -31 38 -29 2 2 17 1 33 -3 19 -4 41 -1 59 9 16 8 33 12
38 8 5 -4 6 -3 1 2 -4 5 3 20 15 33 12 13 19 23 15 23 -4 0 -2 11 3 25 10 26
2 59 -15 62 -6 1 -12 -12 -13 -28 -4 -51 -35 -93 -69 -96 -31 -3 -37 7 -20 35
5 6 6 12 3 12 -2 0 0 15 5 33 24 76 11 99 -46 87z m18 -55 c-11 -87 -22 -104
-51 -83 -27 19 -25 79 2 95 29 17 51 12 49 -12z"/>
<path d="M6103 3962 c-18 -18 -34 -36 -34 -40 -6 -37 -4 -72 3 -72 5 0 7 -3 4
-8 -6 -10 15 -36 32 -40 10 -2 10 2 2 19 -15 28 -7 83 16 107 24 24 71 41 58
21 -6 -12 -5 -12 8 -1 14 11 22 8 53 -19 26 -23 36 -40 35 -58 -3 -40 -1 -44
14 -31 15 12 15 57 0 95 -11 28 -43 55 -68 57 -78 6 -90 3 -123 -30z"/>
<path d="M743 3929 c1 -18 14 -24 49 -21 28 2 38 -22 32 -71 l-7 -45 -46 3
c-40 2 -47 0 -48 -16 -1 -11 2 -17 8 -14 5 4 9 1 9 -4 0 -6 3 -10 8 -10 4 1 9
0 12 -1 3 -1 29 -2 58 -3 28 0 52 -4 52 -8 0 -4 8 -6 18 -4 9 1 27 -1 39 -6
14 -5 23 -4 26 5 9 22 -8 36 -54 44 -44 8 -44 8 -41 47 5 54 18 77 40 67 9 -5
24 -8 32 -7 8 0 18 -4 22 -9 4 -6 11 0 16 14 5 14 9 26 8 27 -1 1 -24 5 -51 8
-28 4 -61 9 -75 11 -14 3 -44 7 -67 8 -36 3 -41 1 -40 -15z"/>
<path d="M6156 3765 c-31 -16 -66 -74 -63 -104 8 -66 61 -120 103 -104 12 4
15 3 10 -6 -5 -8 3 -7 24 4 20 10 29 12 25 4 -9 -13 52 20 65 36 11 14 21 91
12 100 -4 3 -7 10 -7 15 0 10 -56 60 -70 61 -41 5 -82 2 -99 -6z m104 -45 c0
-4 9 -10 20 -13 32 -8 28 -71 -7 -94 -30 -20 -53 -25 -53 -12 0 6 -7 6 -17 1
-34 -18 -72 10 -78 58 -2 17 1 30 7 30 6 0 8 3 4 7 -10 11 74 40 100 35 13 -2
24 -8 24 -12z"/>
<path d="M733 3653 c-14 -15 -23 -22 -18 -14 5 9 4 12 -2 8 -6 -4 -10 -32 -10
-62 0 -45 3 -58 19 -66 18 -10 20 -8 17 23 -4 60 0 75 22 81 21 6 54 -15 43
-26 -8 -8 6 -47 17 -47 5 0 9 13 9 29 0 34 20 54 52 49 15 -2 22 -9 20 -20 -2
-10 2 -18 7 -18 9 0 7 -33 -5 -72 -4 -13 -1 -16 9 -12 32 12 40 87 15 134 -15
27 -26 36 -49 38 -16 1 -29 -2 -29 -8 0 -5 -7 -10 -15 -10 -10 0 -12 -6 -8
-17 7 -17 6 -17 -11 0 -38 38 -54 40 -83 10z"/>
<path d="M6106 3481 c-9 -16 2 -128 15 -151 11 -19 22 -25 51 -26 20 0 36 2
36 5 -2 22 5 28 22 24 11 -3 20 -10 20 -15 0 -5 5 -6 10 -3 6 3 10 2 10 -4 0
-5 6 -8 14 -7 22 3 46 27 46 46 0 9 3 20 7 24 10 10 3 89 -8 101 -11 11 -217
17 -223 6z m101 -78 c-1 -33 -6 -44 -25 -53 -29 -13 -46 2 -50 44 -5 45 3 55
42 53 35 -2 35 -3 33 -44z m103 3 c0 -18 -5 -37 -12 -44 -14 -14 -52 -16 -43
-3 3 5 0 13 -6 16 -5 4 -8 13 -5 20 3 8 0 16 -7 19 -21 9 21 34 48 28 20 -3
25 -10 25 -36z"/>
<path d="M700 3457 c0 -18 37 -47 61 -47 11 0 28 -4 38 -10 10 -5 30 -11 46
-14 15 -3 30 -7 33 -10 4 -5 -35 -24 -63 -32 -40 -10 -101 -37 -107 -47 -12
-18 -9 -37 5 -37 6 0 35 12 62 25 28 14 56 25 64 25 8 0 22 7 30 14 9 8 31 18
49 21 28 5 38 0 65 -27 18 -18 37 -33 43 -34 18 -3 13 30 -10 54 -23 26 -121
79 -110 59 4 -6 -1 -4 -12 5 -10 9 -32 19 -48 22 -15 3 -39 12 -52 21 -13 8
-24 13 -24 9 0 -4 -8 0 -17 7 -15 12 -16 12 -8 -1 6 -12 5 -13 -6 -2 -17 16
-39 16 -39 -1z"/>
<path d="M6111 3245 c-15 -8 -19 -21 -18 -65 1 -31 -2 -60 -5 -66 -12 -19 7
-32 60 -38 29 -3 56 -7 60 -8 4 -1 26 1 49 5 29 5 46 14 55 30 14 25 19 87 7
87 -5 0 -6 7 -3 15 5 11 2 13 -10 9 -10 -4 -15 -17 -14 -39 1 -38 -16 -65 -42
-65 -11 0 -17 8 -17 23 3 99 -52 150 -122 112z m86 -49 c12 -38 9 -67 -8 -76
-9 -5 -20 -6 -24 -2 -3 4 -10 7 -14 7 -25 0 -44 58 -32 92 1 1 17 2 36 1 26
-1 36 -7 42 -22z"/>
<path d="M894 3239 c-3 -5 -9 -7 -14 -4 -10 6 -101 -75 -95 -84 2 -4 0 -13 -4
-20 -6 -10 -11 -9 -24 3 -8 9 -20 16 -25 16 -5 0 -15 7 -22 15 -13 15 -67 45
-82 45 -17 0 -7 -27 19 -51 14 -13 23 -18 19 -12 -5 9 -2 11 8 7 9 -3 16 -10
16 -15 0 -5 23 -20 51 -35 47 -23 50 -26 33 -39 -13 -9 -24 -10 -36 -4 -11 6
-19 5 -23 -2 -4 -6 -12 -8 -19 -6 -18 7 -56 -11 -56 -28 0 -12 12 -14 58 -12
32 2 63 6 68 9 5 3 25 6 44 6 19 1 46 4 60 8 14 3 37 6 52 7 28 2 65 27 39 27
-7 0 -10 4 -7 9 3 5 -11 7 -32 6 -20 -1 -37 -4 -37 -5 0 -1 -14 -4 -31 -6 -35
-5 -53 18 -33 42 9 11 8 14 -2 14 -8 0 2 14 21 30 19 17 40 28 47 26 6 -3 14
2 17 10 3 8 12 14 20 14 11 0 26 20 26 35 0 7 -51 1 -56 -6z"/>
<path d="M758 2940 c-4 -13 -2 -90 2 -90 3 0 7 -8 8 -17 4 -39 9 -55 18 -61 5
-4 9 -18 8 -32 0 -14 2 -29 6 -35 12 -21 32 -87 26 -92 -3 -3 1 -12 9 -20 8
-8 15 -22 16 -31 1 -35 8 -57 18 -60 6 -2 11 -15 11 -28 0 -13 4 -24 10 -24
11 0 32 -69 24 -82 -3 -5 0 -7 8 -6 7 2 12 -5 12 -14 -1 -10 3 -18 9 -18 6 0
7 -3 4 -6 -4 -4 4 -21 16 -38 12 -17 22 -33 21 -36 -2 -13 9 -40 17 -40 5 0 9
-9 9 -20 0 -11 5 -20 10 -20 6 0 10 -9 10 -20 0 -11 7 -23 15 -26 8 -4 13 -10
10 -14 -2 -4 9 -26 25 -49 17 -22 30 -45 30 -51 0 -5 5 -10 10 -10 6 0 10 -6
10 -14 0 -8 11 -28 25 -44 14 -17 25 -35 25 -40 0 -6 12 -20 26 -31 15 -12 23
-21 18 -21 -5 0 -2 -6 7 -13 16 -12 19 -18 19 -38 0 -5 5 -7 10 -4 6 3 10 0
10 -7 0 -8 9 -20 20 -28 11 -8 20 -20 20 -27 0 -7 5 -13 11 -13 5 0 7 -4 4
-10 -3 -5 1 -10 9 -10 9 0 16 -3 16 -8 0 -24 293 -317 331 -330 5 -2 9 -8 9
-14 0 -10 40 -47 52 -48 7 0 17 -7 70 -52 11 -10 25 -15 29 -12 5 3 9 -2 9
-10 0 -9 5 -16 10 -16 6 0 35 -18 64 -40 29 -22 58 -40 64 -40 7 0 12 -4 12
-10 0 -5 7 -10 15 -10 8 0 15 -5 15 -11 0 -5 5 -7 10 -4 6 3 13 -1 16 -9 3 -9
14 -16 24 -16 10 0 20 -4 22 -8 4 -11 150 -82 167 -82 7 0 9 -5 6 -10 -3 -6
-2 -10 4 -10 5 0 20 -4 33 -9 13 -5 25 -8 28 -7 3 0 21 -9 41 -22 20 -12 39
-19 42 -15 4 3 9 -2 13 -11 3 -9 10 -14 15 -11 4 3 25 -3 45 -14 21 -11 41
-18 46 -15 4 3 8 0 8 -7 0 -6 8 -9 20 -6 11 3 20 1 20 -4 0 -5 7 -9 15 -9 9 0
30 -7 47 -16 22 -12 28 -12 22 -2 -6 10 -5 11 8 1 8 -7 18 -10 21 -6 4 3 7 1
7 -6 0 -7 7 -11 15 -8 8 4 17 2 20 -3 4 -6 19 -10 36 -10 16 0 29 -4 29 -9 0
-5 8 -8 18 -6 9 1 21 0 27 -3 10 -7 37 -12 73 -15 12 -1 22 -5 22 -8 0 -3 12
-6 28 -6 54 -2 142 -12 150 -17 7 -4 77 -13 158 -20 17 -2 37 -6 44 -11 9 -6
11 -4 5 4 -6 10 -3 11 11 3 11 -5 25 -7 32 -5 6 3 12 0 12 -7 0 -8 6 -8 20 0
11 6 42 10 68 8 26 -1 53 1 60 5 7 5 12 3 12 -4 0 -7 8 -9 23 -5 12 4 53 7 92
7 38 0 74 4 80 8 5 4 37 7 70 6 33 -1 65 2 70 6 10 7 98 22 125 21 14 -1 78
14 110 26 8 3 19 4 24 3 5 -1 26 5 47 13 22 9 39 13 39 11 0 -3 8 -1 18 4 18
9 51 18 97 26 11 2 21 4 23 5 1 2 7 4 12 5 6 1 11 3 13 5 1 1 10 3 20 5 10 2
36 13 58 24 21 12 43 20 47 19 11 -2 38 10 132 56 82 41 139 64 150 62 3 -1
24 14 47 31 22 18 42 30 45 28 3 -3 13 4 23 15 10 11 23 20 28 20 6 0 21 9 33
21 12 11 31 21 42 22 11 0 19 4 16 8 -2 4 3 10 12 13 10 4 13 2 9 -7 -4 -6 4
0 17 16 13 15 27 27 30 27 11 0 98 61 98 68 0 8 62 46 71 44 4 -1 17 11 30 26
l24 27 -30 -25 -30 -25 30 33 c18 20 35 30 44 27 9 -3 12 -3 8 1 -8 9 21 44
37 44 6 0 38 28 71 62 33 34 53 58 45 53 -8 -4 -2 6 14 23 32 34 47 43 25 15
-11 -15 -10 -14 9 1 12 11 22 22 22 27 0 4 19 27 43 51 23 24 55 63 71 86 16
23 33 42 37 42 5 0 17 17 27 38 10 20 24 36 31 34 7 -1 10 1 7 6 -3 5 3 18 14
30 11 11 29 39 41 61 12 23 25 41 31 41 5 0 7 4 4 9 -3 5 1 15 10 22 8 7 21
26 29 43 17 37 73 136 87 153 6 7 8 19 5 28 -4 8 -1 17 5 21 7 5 8 2 3 -6 -5
-8 -4 -11 3 -6 6 3 13 20 17 36 4 16 17 49 31 72 30 54 44 86 47 108 2 10 8
24 15 32 6 8 13 23 15 34 2 10 9 32 16 48 6 16 13 36 14 45 1 9 6 22 10 29 5
6 6 12 2 12 -3 0 0 10 7 23 6 12 12 31 13 42 0 11 4 26 8 33 8 12 14 37 21 89
2 16 9 41 15 57 8 19 8 32 2 35 -8 5 -244 7 -274 2 -5 0 -6 -5 -3 -9 6 -10
-26 -135 -40 -153 -6 -8 -9 -25 -8 -39 1 -14 -3 -34 -9 -45 -6 -11 -10 -23 -9
-27 1 -5 -2 -8 -7 -8 -6 0 -8 -9 -6 -19 2 -11 -3 -25 -11 -31 -7 -7 -12 -16
-9 -20 3 -5 -6 -29 -19 -54 -13 -25 -22 -46 -19 -46 4 0 -2 -9 -12 -20 -10
-11 -15 -20 -11 -20 3 0 -1 -15 -11 -32 -9 -18 -18 -40 -19 -48 -2 -8 -8 -16
-14 -18 -5 -2 -8 -7 -5 -12 2 -4 -4 -18 -15 -30 -11 -13 -20 -29 -20 -37 0 -7
-5 -13 -11 -13 -5 0 -8 -4 -5 -9 3 -5 -1 -12 -9 -15 -8 -3 -15 -9 -14 -13 4
-21 -2 -33 -13 -27 -6 4 -8 3 -4 -4 3 -6 1 -16 -6 -24 -7 -7 -24 -33 -37 -58
-14 -25 -27 -47 -31 -50 -12 -10 -90 -119 -90 -127 0 -5 -10 -13 -22 -18 -13
-6 -23 -17 -23 -25 -1 -22 -163 -193 -267 -282 -23 -20 -59 -52 -79 -70 -38
-35 -54 -46 -106 -78 -18 -11 -33 -24 -33 -30 0 -5 -6 -10 -13 -10 -7 0 -27
-13 -44 -29 -18 -16 -34 -26 -37 -23 -3 3 -6 0 -6 -6 0 -7 -8 -12 -17 -12 -9
0 -26 -9 -37 -19 -20 -18 -125 -78 -136 -78 -6 1 -51 -26 -92 -55 -18 -12 -28
-14 -28 -7 0 8 -7 6 -18 -4 -10 -10 -21 -15 -24 -12 -3 3 -11 -1 -18 -10 -7
-8 -20 -15 -30 -15 -10 0 -44 -12 -76 -27 -33 -15 -66 -28 -74 -29 -9 0 -27
-7 -40 -14 -14 -7 -27 -13 -30 -13 -5 0 -16 -2 -47 -13 -10 -3 -18 -4 -18 -3
0 1 -10 -3 -22 -10 -17 -9 -23 -9 -23 0 0 7 -9 5 -25 -5 -17 -11 -25 -13 -25
-4 0 6 -7 3 -15 -8 -10 -13 -14 -14 -15 -5 0 10 -3 11 -13 3 -14 -12 -49 -21
-112 -28 -47 -5 -64 -9 -85 -17 -31 -11 -60 -15 -55 -6 4 5 -7 6 -22 4 -52
-10 -108 -16 -128 -15 -11 1 -24 1 -30 1 -5 0 -65 -2 -133 -4 -68 -2 -125 0
-127 3 -2 4 -23 6 -47 5 -24 -1 -53 2 -66 6 -16 6 -21 6 -16 -2 4 -7 -1 -9
-15 -5 -48 14 -58 16 -96 22 -22 3 -59 7 -83 8 -23 2 -45 6 -49 10 -3 3 -15 6
-25 6 -10 0 -18 4 -18 10 0 5 -7 7 -15 4 -8 -3 -29 -1 -47 6 -18 7 -46 14 -63
16 -16 2 -33 8 -38 13 -5 5 -16 7 -23 4 -8 -3 -14 0 -14 7 0 6 -6 10 -12 7 -7
-2 -25 2 -40 9 -15 8 -31 13 -35 12 -4 -1 -18 3 -30 10 -12 7 -26 11 -30 10
-4 -1 -23 6 -40 15 -18 10 -36 18 -40 19 -25 5 -63 23 -63 30 0 4 -6 5 -13 3
-7 -3 -25 5 -40 17 -25 20 -43 28 -74 30 -7 1 -13 5 -13 10 0 4 -7 8 -15 8 -8
0 -15 4 -15 10 0 5 -11 12 -25 16 -14 3 -25 10 -25 15 0 5 -5 9 -10 9 -6 0
-28 11 -50 25 -22 14 -40 23 -40 21 0 -3 -15 8 -32 25 -18 16 -38 29 -44 29
-6 0 -19 9 -29 20 -10 11 -23 20 -28 20 -5 0 -21 12 -35 28 -14 15 -28 25 -30
23 -2 -1 -15 6 -28 18 -13 12 -29 21 -34 21 -6 0 -10 7 -10 15 0 8 -4 14 -9
13 -5 -2 -28 17 -50 40 -23 24 -41 41 -41 37 0 -3 -25 19 -55 50 -30 32 -55
61 -55 65 0 4 -11 15 -25 24 -14 10 -35 31 -45 49 -11 18 -23 31 -27 29 -5 -2
-12 4 -18 14 -5 9 -20 28 -32 41 -12 14 -25 34 -28 44 -4 11 -13 19 -21 19 -8
0 -13 4 -10 8 3 5 -6 20 -18 34 -13 13 -31 39 -40 56 -9 18 -21 32 -27 32 -6
0 -8 4 -5 8 3 5 -3 18 -14 29 -10 12 -16 24 -13 27 4 3 1 6 -5 6 -7 0 -12 6
-12 14 0 8 -7 22 -16 30 -8 9 -12 16 -8 16 4 0 -1 9 -11 20 -10 11 -15 20 -11
20 4 0 -4 15 -18 33 -15 19 -26 41 -26 49 0 9 -7 21 -15 28 -8 7 -15 21 -15
31 0 11 -5 19 -11 19 -5 0 -7 5 -4 10 3 6 2 10 -3 10 -11 0 -26 47 -23 73 1 9
-2 17 -7 17 -12 0 -35 48 -38 80 -2 14 -8 26 -14 28 -5 2 -8 8 -4 13 3 5 1 9
-3 9 -5 0 -9 8 -10 18 -5 42 -16 82 -24 82 -5 0 -6 7 -3 15 4 8 -1 33 -9 54
-9 21 -13 41 -10 45 4 3 1 6 -6 6 -7 0 -10 10 -7 25 3 15 0 25 -7 26 -7 0 -25
2 -42 3 -16 2 -36 -2 -44 -8 -9 -7 -12 -7 -9 -1 4 7 -23 10 -78 10 -46 0 -85
-2 -86 -5z"/>
</g>
</svg>
